<mxfile host="Electron" agent="Mozilla/5.0 (Windows NT 10.0; Win64; x64) AppleWebKit/537.36 (KHTML, like Gecko) draw.io/24.7.17 Chrome/128.0.6613.36 Electron/32.0.1 Safari/537.36" version="24.7.17">
  <diagram name="Page-1" id="KZN-zyBD-0XipZeYQRDT">
    <mxGraphModel dx="191" dy="109" grid="1" gridSize="10" guides="1" tooltips="1" connect="1" arrows="1" fold="1" page="1" pageScale="1" pageWidth="500" pageHeight="200" math="0" shadow="0">
      <root>
        <mxCell id="0" />
        <mxCell id="1" parent="0" />
        <mxCell id="PaUmts2U89IXsogHB_Yg-3" value="" style="group" vertex="1" connectable="0" parent="1">
          <mxGeometry x="9" y="56" width="482.6" height="88.9" as="geometry" />
        </mxCell>
        <mxCell id="9eh16xiQdjSHdPkHuFP6-378" value="" style="rounded=0;whiteSpace=wrap;html=1;strokeColor=#aaaaaa;fillColor=#bfbfbf;strokeWidth=1;container=0;part=1;movable=1;resizable=1;rotatable=1;deletable=1;editable=1;locked=0;connectable=1;" parent="PaUmts2U89IXsogHB_Yg-3" vertex="1">
          <mxGeometry width="482.6" height="88.9" as="geometry" />
        </mxCell>
        <mxCell id="9eh16xiQdjSHdPkHuFP6-379" value="" style="rounded=0;whiteSpace=wrap;html=1;strokeColor=#aaaaaa;fillColor=#000000;strokeWidth=1;movable=1;resizable=1;rotatable=1;deletable=1;editable=1;locked=0;connectable=1;container=0;" parent="PaUmts2U89IXsogHB_Yg-3" vertex="1">
          <mxGeometry x="18" width="446.6" height="88.9" as="geometry" />
        </mxCell>
        <mxCell id="Tk_3Gi3uglissdDTNCGx-26" value="" style="group" parent="PaUmts2U89IXsogHB_Yg-3" vertex="1" connectable="0">
          <mxGeometry x="4" y="6.000000000000007" width="14.000000000000025" height="77" as="geometry" />
        </mxCell>
        <mxCell id="Tk_3Gi3uglissdDTNCGx-27" value="" style="group" parent="Tk_3Gi3uglissdDTNCGx-26" vertex="1" connectable="0">
          <mxGeometry x="0.003750000000025011" y="60.95000000000001" width="10" height="6" as="geometry" />
        </mxCell>
        <mxCell id="Tk_3Gi3uglissdDTNCGx-28" value="" style="rounded=0;whiteSpace=wrap;html=1;fillColor=#000000;fontColor=#ffffff;strokeColor=none;container=0;" parent="Tk_3Gi3uglissdDTNCGx-27" vertex="1">
          <mxGeometry x="3" width="4" height="6" as="geometry" />
        </mxCell>
        <mxCell id="Tk_3Gi3uglissdDTNCGx-29" value="" style="ellipse;whiteSpace=wrap;html=1;aspect=fixed;strokeColor=none;fillColor=#000000;" parent="Tk_3Gi3uglissdDTNCGx-27" vertex="1">
          <mxGeometry x="4" width="6" height="6" as="geometry" />
        </mxCell>
        <mxCell id="Tk_3Gi3uglissdDTNCGx-30" value="" style="ellipse;whiteSpace=wrap;html=1;aspect=fixed;strokeColor=none;fillColor=#000000;" parent="Tk_3Gi3uglissdDTNCGx-27" vertex="1">
          <mxGeometry width="6" height="6" as="geometry" />
        </mxCell>
        <mxCell id="Tk_3Gi3uglissdDTNCGx-31" value="" style="group" parent="Tk_3Gi3uglissdDTNCGx-26" vertex="1" connectable="0">
          <mxGeometry y="10.04999999999999" width="10" height="6" as="geometry" />
        </mxCell>
        <mxCell id="Tk_3Gi3uglissdDTNCGx-32" value="" style="rounded=0;whiteSpace=wrap;html=1;fillColor=#000000;fontColor=#ffffff;strokeColor=none;container=0;" parent="Tk_3Gi3uglissdDTNCGx-31" vertex="1">
          <mxGeometry x="3" width="4" height="6" as="geometry" />
        </mxCell>
        <mxCell id="Tk_3Gi3uglissdDTNCGx-33" value="" style="ellipse;whiteSpace=wrap;html=1;aspect=fixed;strokeColor=none;fillColor=#000000;" parent="Tk_3Gi3uglissdDTNCGx-31" vertex="1">
          <mxGeometry x="4" width="6" height="6" as="geometry" />
        </mxCell>
        <mxCell id="Tk_3Gi3uglissdDTNCGx-34" value="" style="ellipse;whiteSpace=wrap;html=1;aspect=fixed;strokeColor=none;fillColor=#000000;" parent="Tk_3Gi3uglissdDTNCGx-31" vertex="1">
          <mxGeometry width="6" height="6" as="geometry" />
        </mxCell>
        <mxCell id="Tk_3Gi3uglissdDTNCGx-35" value="" style="rounded=0;whiteSpace=wrap;html=1;strokeColor=#aaaaaa;fillColor=#bfbfbf;strokeWidth=1;movable=1;resizable=1;rotatable=1;deletable=1;editable=1;locked=0;connectable=1;container=0;" parent="Tk_3Gi3uglissdDTNCGx-26" vertex="1">
          <mxGeometry x="4.000000000000025" width="10" height="77" as="geometry" />
        </mxCell>
        <mxCell id="Tk_3Gi3uglissdDTNCGx-36" value="" style="group;flipH=1;" parent="PaUmts2U89IXsogHB_Yg-3" vertex="1" connectable="0">
          <mxGeometry x="464.6" y="6" width="14.000000000000025" height="77" as="geometry" />
        </mxCell>
        <mxCell id="Tk_3Gi3uglissdDTNCGx-37" value="" style="group" parent="Tk_3Gi3uglissdDTNCGx-36" vertex="1" connectable="0">
          <mxGeometry x="3.9962500000000034" y="60.95000000000001" width="10" height="6" as="geometry" />
        </mxCell>
        <mxCell id="Tk_3Gi3uglissdDTNCGx-38" value="" style="rounded=0;whiteSpace=wrap;html=1;fillColor=#000000;fontColor=#ffffff;strokeColor=none;container=0;" parent="Tk_3Gi3uglissdDTNCGx-37" vertex="1">
          <mxGeometry x="3" width="4" height="6" as="geometry" />
        </mxCell>
        <mxCell id="Tk_3Gi3uglissdDTNCGx-39" value="" style="ellipse;whiteSpace=wrap;html=1;aspect=fixed;strokeColor=none;fillColor=#000000;" parent="Tk_3Gi3uglissdDTNCGx-37" vertex="1">
          <mxGeometry x="4" width="6" height="6" as="geometry" />
        </mxCell>
        <mxCell id="Tk_3Gi3uglissdDTNCGx-40" value="" style="ellipse;whiteSpace=wrap;html=1;aspect=fixed;strokeColor=none;fillColor=#000000;" parent="Tk_3Gi3uglissdDTNCGx-37" vertex="1">
          <mxGeometry width="6" height="6" as="geometry" />
        </mxCell>
        <mxCell id="Tk_3Gi3uglissdDTNCGx-41" value="" style="group" parent="Tk_3Gi3uglissdDTNCGx-36" vertex="1" connectable="0">
          <mxGeometry x="4.000000000000028" y="10.04999999999999" width="10" height="6" as="geometry" />
        </mxCell>
        <mxCell id="Tk_3Gi3uglissdDTNCGx-42" value="" style="rounded=0;whiteSpace=wrap;html=1;fillColor=#000000;fontColor=#ffffff;strokeColor=none;container=0;" parent="Tk_3Gi3uglissdDTNCGx-41" vertex="1">
          <mxGeometry x="3" width="4" height="6" as="geometry" />
        </mxCell>
        <mxCell id="Tk_3Gi3uglissdDTNCGx-43" value="" style="ellipse;whiteSpace=wrap;html=1;aspect=fixed;strokeColor=none;fillColor=#000000;" parent="Tk_3Gi3uglissdDTNCGx-41" vertex="1">
          <mxGeometry x="4" width="6" height="6" as="geometry" />
        </mxCell>
        <mxCell id="Tk_3Gi3uglissdDTNCGx-44" value="" style="ellipse;whiteSpace=wrap;html=1;aspect=fixed;strokeColor=none;fillColor=#000000;" parent="Tk_3Gi3uglissdDTNCGx-41" vertex="1">
          <mxGeometry width="6" height="6" as="geometry" />
        </mxCell>
        <mxCell id="Tk_3Gi3uglissdDTNCGx-45" value="" style="rounded=0;whiteSpace=wrap;html=1;strokeColor=#aaaaaa;fillColor=#bfbfbf;strokeWidth=1;movable=1;resizable=1;rotatable=1;deletable=1;editable=1;locked=0;connectable=1;container=0;" parent="Tk_3Gi3uglissdDTNCGx-36" vertex="1">
          <mxGeometry x="3.552713678800501e-15" width="10" height="77" as="geometry" />
        </mxCell>
        <mxCell id="JdL9-djjlSlwG32NaNs0-222" value="" style="rounded=0;whiteSpace=wrap;html=1;strokeColor=none;fillColor=#222222;strokeWidth=0.5;container=0;movable=1;resizable=1;rotatable=1;deletable=1;editable=1;locked=0;connectable=1;" parent="PaUmts2U89IXsogHB_Yg-3" vertex="1">
          <mxGeometry x="156.78" y="1.3900000000000006" width="84" height="30" as="geometry" />
        </mxCell>
        <mxCell id="JdL9-djjlSlwG32NaNs0-246" value="" style="rounded=0;whiteSpace=wrap;html=1;strokeColor=none;fillColor=#222222;strokeWidth=0.5;container=0;movable=1;resizable=1;rotatable=1;deletable=1;editable=1;locked=0;connectable=1;" parent="PaUmts2U89IXsogHB_Yg-3" vertex="1">
          <mxGeometry x="352.82750000000004" y="1.350833333333334" width="109.95212765957446" height="30.039166666666667" as="geometry" />
        </mxCell>
        <mxCell id="JdL9-djjlSlwG32NaNs0-247" value="" style="rounded=0;whiteSpace=wrap;html=1;strokeColor=#222222;fillColor=#000000;strokeWidth=0.5;movable=1;resizable=1;rotatable=1;deletable=1;editable=1;locked=0;connectable=1;container=0;" parent="PaUmts2U89IXsogHB_Yg-3" vertex="1">
          <mxGeometry x="356.09965584049576" y="4.401666666666671" width="7.281597858249963" height="7.408333333333333" as="geometry" />
        </mxCell>
        <mxCell id="JdL9-djjlSlwG32NaNs0-248" value="" style="rounded=0;whiteSpace=wrap;html=1;strokeColor=#222222;fillColor=#000000;strokeWidth=0.5;movable=1;resizable=1;rotatable=1;deletable=1;editable=1;locked=0;connectable=1;container=0;" parent="PaUmts2U89IXsogHB_Yg-3" vertex="1">
          <mxGeometry x="356.09965584049576" y="12.550833333333344" width="7.281597858249963" height="7.408333333333333" as="geometry" />
        </mxCell>
        <mxCell id="JdL9-djjlSlwG32NaNs0-249" value="" style="rounded=0;whiteSpace=wrap;html=1;strokeColor=#222222;fillColor=#000000;strokeWidth=0.5;movable=1;resizable=1;rotatable=1;deletable=1;editable=1;locked=0;connectable=1;container=0;" parent="PaUmts2U89IXsogHB_Yg-3" vertex="1">
          <mxGeometry x="364.1094134845707" y="4.401666666666671" width="7.281597858249963" height="7.408333333333333" as="geometry" />
        </mxCell>
        <mxCell id="JdL9-djjlSlwG32NaNs0-250" value="" style="rounded=0;whiteSpace=wrap;html=1;strokeColor=#222222;fillColor=#000000;strokeWidth=0.5;movable=1;resizable=1;rotatable=1;deletable=1;editable=1;locked=0;connectable=1;container=0;" parent="PaUmts2U89IXsogHB_Yg-3" vertex="1">
          <mxGeometry x="364.1094134845707" y="12.550833333333344" width="7.281597858249963" height="7.408333333333333" as="geometry" />
        </mxCell>
        <mxCell id="JdL9-djjlSlwG32NaNs0-251" value="" style="rounded=0;whiteSpace=wrap;html=1;strokeColor=#222222;fillColor=#000000;strokeWidth=0.5;movable=1;resizable=1;rotatable=1;deletable=1;editable=1;locked=0;connectable=1;container=0;" parent="PaUmts2U89IXsogHB_Yg-3" vertex="1">
          <mxGeometry x="372.11917112864563" y="4.401666666666671" width="7.281597858249963" height="7.408333333333333" as="geometry" />
        </mxCell>
        <mxCell id="JdL9-djjlSlwG32NaNs0-252" value="" style="rounded=0;whiteSpace=wrap;html=1;strokeColor=#222222;fillColor=#000000;strokeWidth=0.5;movable=1;resizable=1;rotatable=1;deletable=1;editable=1;locked=0;connectable=1;container=0;" parent="PaUmts2U89IXsogHB_Yg-3" vertex="1">
          <mxGeometry x="372.11917112864563" y="12.550833333333344" width="7.281597858249963" height="7.408333333333333" as="geometry" />
        </mxCell>
        <mxCell id="JdL9-djjlSlwG32NaNs0-253" value="" style="rounded=0;whiteSpace=wrap;html=1;strokeColor=#222222;fillColor=#000000;strokeWidth=0.5;movable=1;resizable=1;rotatable=1;deletable=1;editable=1;locked=0;connectable=1;container=0;" parent="PaUmts2U89IXsogHB_Yg-3" vertex="1">
          <mxGeometry x="380.1289287727206" y="4.401666666666671" width="7.281597858249963" height="7.408333333333333" as="geometry" />
        </mxCell>
        <mxCell id="JdL9-djjlSlwG32NaNs0-254" value="" style="rounded=0;whiteSpace=wrap;html=1;strokeColor=#222222;fillColor=#000000;strokeWidth=0.5;movable=1;resizable=1;rotatable=1;deletable=1;editable=1;locked=0;connectable=1;container=0;" parent="PaUmts2U89IXsogHB_Yg-3" vertex="1">
          <mxGeometry x="380.1289287727206" y="12.550833333333344" width="7.281597858249963" height="7.408333333333333" as="geometry" />
        </mxCell>
        <mxCell id="JdL9-djjlSlwG32NaNs0-255" value="" style="rounded=0;whiteSpace=wrap;html=1;strokeColor=#222222;fillColor=#000000;strokeWidth=0.5;movable=1;resizable=1;rotatable=1;deletable=1;editable=1;locked=0;connectable=1;container=0;" parent="PaUmts2U89IXsogHB_Yg-3" vertex="1">
          <mxGeometry x="388.13868641679557" y="4.401666666666671" width="7.281597858249963" height="7.408333333333333" as="geometry" />
        </mxCell>
        <mxCell id="JdL9-djjlSlwG32NaNs0-256" value="" style="rounded=0;whiteSpace=wrap;html=1;strokeColor=#222222;fillColor=#000000;strokeWidth=0.5;movable=1;resizable=1;rotatable=1;deletable=1;editable=1;locked=0;connectable=1;container=0;" parent="PaUmts2U89IXsogHB_Yg-3" vertex="1">
          <mxGeometry x="388.13868641679557" y="12.550833333333344" width="7.281597858249963" height="7.408333333333333" as="geometry" />
        </mxCell>
        <mxCell id="JdL9-djjlSlwG32NaNs0-257" value="" style="rounded=0;whiteSpace=wrap;html=1;strokeColor=#222222;fillColor=#000000;strokeWidth=0.5;movable=1;resizable=1;rotatable=1;deletable=1;editable=1;locked=0;connectable=1;container=0;" parent="PaUmts2U89IXsogHB_Yg-3" vertex="1">
          <mxGeometry x="396.14844406087053" y="4.401666666666671" width="7.281597858249963" height="7.408333333333333" as="geometry" />
        </mxCell>
        <mxCell id="JdL9-djjlSlwG32NaNs0-258" value="" style="rounded=0;whiteSpace=wrap;html=1;strokeColor=#222222;fillColor=#000000;strokeWidth=0.5;movable=1;resizable=1;rotatable=1;deletable=1;editable=1;locked=0;connectable=1;container=0;" parent="PaUmts2U89IXsogHB_Yg-3" vertex="1">
          <mxGeometry x="396.14844406087053" y="12.550833333333344" width="7.281597858249963" height="7.408333333333333" as="geometry" />
        </mxCell>
        <mxCell id="JdL9-djjlSlwG32NaNs0-259" value="" style="rounded=0;whiteSpace=wrap;html=1;strokeColor=#222222;fillColor=#000000;strokeWidth=0.5;movable=1;resizable=1;rotatable=1;deletable=1;editable=1;locked=0;connectable=1;container=0;" parent="PaUmts2U89IXsogHB_Yg-3" vertex="1">
          <mxGeometry x="404.1582017049455" y="4.401666666666671" width="7.281597858249963" height="7.408333333333333" as="geometry" />
        </mxCell>
        <mxCell id="JdL9-djjlSlwG32NaNs0-260" value="" style="rounded=0;whiteSpace=wrap;html=1;strokeColor=#222222;fillColor=#000000;strokeWidth=0.5;movable=1;resizable=1;rotatable=1;deletable=1;editable=1;locked=0;connectable=1;container=0;" parent="PaUmts2U89IXsogHB_Yg-3" vertex="1">
          <mxGeometry x="404.1582017049455" y="12.550833333333344" width="7.281597858249963" height="7.408333333333333" as="geometry" />
        </mxCell>
        <mxCell id="JdL9-djjlSlwG32NaNs0-261" value="" style="rounded=0;whiteSpace=wrap;html=1;strokeColor=#222222;fillColor=#000000;strokeWidth=0.5;movable=1;resizable=1;rotatable=1;deletable=1;editable=1;locked=0;connectable=1;container=0;" parent="PaUmts2U89IXsogHB_Yg-3" vertex="1">
          <mxGeometry x="412.16795934902046" y="4.401666666666671" width="7.281597858249963" height="7.408333333333333" as="geometry" />
        </mxCell>
        <mxCell id="JdL9-djjlSlwG32NaNs0-262" value="" style="rounded=0;whiteSpace=wrap;html=1;strokeColor=#222222;fillColor=#000000;strokeWidth=0.5;movable=1;resizable=1;rotatable=1;deletable=1;editable=1;locked=0;connectable=1;container=0;" parent="PaUmts2U89IXsogHB_Yg-3" vertex="1">
          <mxGeometry x="412.16795934902046" y="12.550833333333344" width="7.281597858249963" height="7.408333333333333" as="geometry" />
        </mxCell>
        <mxCell id="JdL9-djjlSlwG32NaNs0-263" value="" style="rounded=0;whiteSpace=wrap;html=1;strokeColor=#222222;fillColor=#000000;strokeWidth=0.5;movable=1;resizable=1;rotatable=1;deletable=1;editable=1;locked=0;connectable=1;container=0;" parent="PaUmts2U89IXsogHB_Yg-3" vertex="1">
          <mxGeometry x="420.17771699309543" y="4.401666666666671" width="7.281597858249963" height="7.408333333333333" as="geometry" />
        </mxCell>
        <mxCell id="JdL9-djjlSlwG32NaNs0-264" value="" style="rounded=0;whiteSpace=wrap;html=1;strokeColor=#222222;fillColor=#000000;strokeWidth=0.5;movable=1;resizable=1;rotatable=1;deletable=1;editable=1;locked=0;connectable=1;container=0;" parent="PaUmts2U89IXsogHB_Yg-3" vertex="1">
          <mxGeometry x="420.17771699309543" y="12.550833333333344" width="7.281597858249963" height="7.408333333333333" as="geometry" />
        </mxCell>
        <mxCell id="JdL9-djjlSlwG32NaNs0-265" value="" style="rounded=0;whiteSpace=wrap;html=1;strokeColor=#222222;fillColor=#000000;strokeWidth=0.5;movable=1;resizable=1;rotatable=1;deletable=1;editable=1;locked=0;connectable=1;container=0;" parent="PaUmts2U89IXsogHB_Yg-3" vertex="1">
          <mxGeometry x="428.18747463717034" y="4.401666666666671" width="7.281597858249963" height="7.408333333333333" as="geometry" />
        </mxCell>
        <mxCell id="JdL9-djjlSlwG32NaNs0-266" value="" style="rounded=0;whiteSpace=wrap;html=1;strokeColor=#222222;fillColor=#000000;strokeWidth=0.5;movable=1;resizable=1;rotatable=1;deletable=1;editable=1;locked=0;connectable=1;container=0;" parent="PaUmts2U89IXsogHB_Yg-3" vertex="1">
          <mxGeometry x="428.18747463717034" y="12.550833333333344" width="7.281597858249963" height="7.408333333333333" as="geometry" />
        </mxCell>
        <mxCell id="JdL9-djjlSlwG32NaNs0-267" value="" style="rounded=0;whiteSpace=wrap;html=1;strokeColor=#222222;fillColor=#000000;strokeWidth=0.5;movable=1;resizable=1;rotatable=1;deletable=1;editable=1;locked=0;connectable=1;container=0;" parent="PaUmts2U89IXsogHB_Yg-3" vertex="1">
          <mxGeometry x="436.1972322812453" y="4.401666666666671" width="7.281597858249963" height="7.408333333333333" as="geometry" />
        </mxCell>
        <mxCell id="JdL9-djjlSlwG32NaNs0-268" value="" style="rounded=0;whiteSpace=wrap;html=1;strokeColor=#222222;fillColor=#000000;strokeWidth=0.5;movable=1;resizable=1;rotatable=1;deletable=1;editable=1;locked=0;connectable=1;container=0;" parent="PaUmts2U89IXsogHB_Yg-3" vertex="1">
          <mxGeometry x="436.1972322812453" y="12.550833333333344" width="7.281597858249963" height="7.408333333333333" as="geometry" />
        </mxCell>
        <mxCell id="JdL9-djjlSlwG32NaNs0-269" value="" style="rounded=0;whiteSpace=wrap;html=1;strokeColor=#222222;fillColor=#000000;strokeWidth=0.5;movable=1;resizable=1;rotatable=1;deletable=1;editable=1;locked=0;connectable=1;container=0;" parent="PaUmts2U89IXsogHB_Yg-3" vertex="1">
          <mxGeometry x="444.2069899253203" y="4.401666666666671" width="7.281597858249963" height="7.408333333333333" as="geometry" />
        </mxCell>
        <mxCell id="JdL9-djjlSlwG32NaNs0-270" value="" style="rounded=0;whiteSpace=wrap;html=1;strokeColor=#222222;fillColor=#000000;strokeWidth=0.5;movable=1;resizable=1;rotatable=1;deletable=1;editable=1;locked=0;connectable=1;container=0;" parent="PaUmts2U89IXsogHB_Yg-3" vertex="1">
          <mxGeometry x="444.2069899253203" y="12.550833333333344" width="7.281597858249963" height="7.408333333333333" as="geometry" />
        </mxCell>
        <mxCell id="JdL9-djjlSlwG32NaNs0-271" value="" style="rounded=0;whiteSpace=wrap;html=1;strokeColor=#222222;fillColor=#000000;strokeWidth=0.5;movable=1;resizable=1;rotatable=1;deletable=1;editable=1;locked=0;connectable=1;container=0;" parent="PaUmts2U89IXsogHB_Yg-3" vertex="1">
          <mxGeometry x="452.21674756939524" y="4.401666666666671" width="7.281597858249963" height="7.408333333333333" as="geometry" />
        </mxCell>
        <mxCell id="JdL9-djjlSlwG32NaNs0-272" value="" style="rounded=0;whiteSpace=wrap;html=1;strokeColor=#222222;fillColor=#000000;strokeWidth=0.5;movable=1;resizable=1;rotatable=1;deletable=1;editable=1;locked=0;connectable=1;container=0;" parent="PaUmts2U89IXsogHB_Yg-3" vertex="1">
          <mxGeometry x="452.21674756939524" y="12.550833333333344" width="7.281597858249963" height="7.408333333333333" as="geometry" />
        </mxCell>
        <mxCell id="JdL9-djjlSlwG32NaNs0-448" value="" style="group;strokeColor=#222222;strokeWidth=1;fillColor=none;" parent="PaUmts2U89IXsogHB_Yg-3" vertex="1" connectable="0">
          <mxGeometry x="19.83" width="136" height="15" as="geometry" />
        </mxCell>
        <mxCell id="JdL9-djjlSlwG32NaNs0-307" value="" style="rounded=0;whiteSpace=wrap;html=1;strokeColor=none;fillColor=#222222;strokeWidth=0.5;container=0;movable=1;resizable=1;rotatable=1;deletable=1;editable=1;locked=0;connectable=1;" parent="JdL9-djjlSlwG32NaNs0-448" vertex="1">
          <mxGeometry y="0.019710906701702776" width="136" height="15" as="geometry" />
        </mxCell>
        <mxCell id="JdL9-djjlSlwG32NaNs0-411" value="" style="group" parent="JdL9-djjlSlwG32NaNs0-448" vertex="1" connectable="0">
          <mxGeometry x="4.863636363635699" width="126.27272727272722" height="15" as="geometry" />
        </mxCell>
        <mxCell id="JdL9-djjlSlwG32NaNs0-308" value="" style="rounded=0;whiteSpace=wrap;html=1;strokeColor=none;fillColor=#000000;strokeWidth=0.5;movable=1;resizable=1;rotatable=1;deletable=1;editable=1;locked=0;connectable=1;container=0;" parent="JdL9-djjlSlwG32NaNs0-411" vertex="1">
          <mxGeometry width="6.272727272727271" height="6.603153745072277" as="geometry" />
        </mxCell>
        <mxCell id="JdL9-djjlSlwG32NaNs0-309" value="" style="rounded=0;whiteSpace=wrap;html=1;strokeColor=none;fillColor=#000000;strokeWidth=0.5;movable=1;resizable=1;rotatable=1;deletable=1;editable=1;locked=0;connectable=1;container=0;" parent="JdL9-djjlSlwG32NaNs0-411" vertex="1">
          <mxGeometry y="8.396846254927718" width="6.272727272727271" height="6.603153745072277" as="geometry" />
        </mxCell>
        <mxCell id="JdL9-djjlSlwG32NaNs0-310" value="" style="rounded=0;whiteSpace=wrap;html=1;strokeColor=none;fillColor=#000000;strokeWidth=0.5;movable=1;resizable=1;rotatable=1;deletable=1;editable=1;locked=0;connectable=1;container=0;" parent="JdL9-djjlSlwG32NaNs0-411" vertex="1">
          <mxGeometry x="8" width="6.272727272727271" height="6.603153745072277" as="geometry" />
        </mxCell>
        <mxCell id="JdL9-djjlSlwG32NaNs0-311" value="" style="rounded=0;whiteSpace=wrap;html=1;strokeColor=none;fillColor=#000000;strokeWidth=0.5;movable=1;resizable=1;rotatable=1;deletable=1;editable=1;locked=0;connectable=1;container=0;" parent="JdL9-djjlSlwG32NaNs0-411" vertex="1">
          <mxGeometry x="8" y="8.396846254927718" width="6.272727272727271" height="6.603153745072277" as="geometry" />
        </mxCell>
        <mxCell id="JdL9-djjlSlwG32NaNs0-312" value="" style="rounded=0;whiteSpace=wrap;html=1;strokeColor=none;fillColor=#000000;strokeWidth=0.5;movable=1;resizable=1;rotatable=1;deletable=1;editable=1;locked=0;connectable=1;container=0;" parent="JdL9-djjlSlwG32NaNs0-411" vertex="1">
          <mxGeometry x="15.999999999999986" width="6.272727272727271" height="6.603153745072277" as="geometry" />
        </mxCell>
        <mxCell id="JdL9-djjlSlwG32NaNs0-313" value="" style="rounded=0;whiteSpace=wrap;html=1;strokeColor=none;fillColor=#000000;strokeWidth=0.5;movable=1;resizable=1;rotatable=1;deletable=1;editable=1;locked=0;connectable=1;container=0;" parent="JdL9-djjlSlwG32NaNs0-411" vertex="1">
          <mxGeometry x="15.999999999999986" y="8.396846254927718" width="6.272727272727271" height="6.603153745072277" as="geometry" />
        </mxCell>
        <mxCell id="JdL9-djjlSlwG32NaNs0-314" value="" style="rounded=0;whiteSpace=wrap;html=1;strokeColor=none;fillColor=#000000;strokeWidth=0.5;movable=1;resizable=1;rotatable=1;deletable=1;editable=1;locked=0;connectable=1;container=0;" parent="JdL9-djjlSlwG32NaNs0-411" vertex="1">
          <mxGeometry x="23.999999999999993" width="6.272727272727271" height="6.603153745072277" as="geometry" />
        </mxCell>
        <mxCell id="JdL9-djjlSlwG32NaNs0-315" value="" style="rounded=0;whiteSpace=wrap;html=1;strokeColor=none;fillColor=#000000;strokeWidth=0.5;movable=1;resizable=1;rotatable=1;deletable=1;editable=1;locked=0;connectable=1;container=0;" parent="JdL9-djjlSlwG32NaNs0-411" vertex="1">
          <mxGeometry x="23.999999999999993" y="8.396846254927718" width="6.272727272727271" height="6.603153745072277" as="geometry" />
        </mxCell>
        <mxCell id="JdL9-djjlSlwG32NaNs0-316" value="" style="rounded=0;whiteSpace=wrap;html=1;strokeColor=none;fillColor=#000000;strokeWidth=0.5;movable=1;resizable=1;rotatable=1;deletable=1;editable=1;locked=0;connectable=1;container=0;" parent="JdL9-djjlSlwG32NaNs0-411" vertex="1">
          <mxGeometry x="32.00000000000001" width="6.272727272727271" height="6.603153745072277" as="geometry" />
        </mxCell>
        <mxCell id="JdL9-djjlSlwG32NaNs0-317" value="" style="rounded=0;whiteSpace=wrap;html=1;strokeColor=none;fillColor=#000000;strokeWidth=0.5;movable=1;resizable=1;rotatable=1;deletable=1;editable=1;locked=0;connectable=1;container=0;" parent="JdL9-djjlSlwG32NaNs0-411" vertex="1">
          <mxGeometry x="32.00000000000001" y="8.396846254927718" width="6.272727272727271" height="6.603153745072277" as="geometry" />
        </mxCell>
        <mxCell id="JdL9-djjlSlwG32NaNs0-318" value="" style="rounded=0;whiteSpace=wrap;html=1;strokeColor=none;fillColor=#000000;strokeWidth=0.5;movable=1;resizable=1;rotatable=1;deletable=1;editable=1;locked=0;connectable=1;container=0;" parent="JdL9-djjlSlwG32NaNs0-411" vertex="1">
          <mxGeometry x="39.99999999999999" width="6.272727272727271" height="6.603153745072277" as="geometry" />
        </mxCell>
        <mxCell id="JdL9-djjlSlwG32NaNs0-319" value="" style="rounded=0;whiteSpace=wrap;html=1;strokeColor=none;fillColor=#000000;strokeWidth=0.5;movable=1;resizable=1;rotatable=1;deletable=1;editable=1;locked=0;connectable=1;container=0;" parent="JdL9-djjlSlwG32NaNs0-411" vertex="1">
          <mxGeometry x="39.99999999999999" y="8.396846254927718" width="6.272727272727271" height="6.603153745072277" as="geometry" />
        </mxCell>
        <mxCell id="JdL9-djjlSlwG32NaNs0-320" value="" style="rounded=0;whiteSpace=wrap;html=1;strokeColor=none;fillColor=#000000;strokeWidth=0.5;movable=1;resizable=1;rotatable=1;deletable=1;editable=1;locked=0;connectable=1;container=0;" parent="JdL9-djjlSlwG32NaNs0-411" vertex="1">
          <mxGeometry x="48.00000000000001" width="6.272727272727271" height="6.603153745072277" as="geometry" />
        </mxCell>
        <mxCell id="JdL9-djjlSlwG32NaNs0-321" value="" style="rounded=0;whiteSpace=wrap;html=1;strokeColor=none;fillColor=#000000;strokeWidth=0.5;movable=1;resizable=1;rotatable=1;deletable=1;editable=1;locked=0;connectable=1;container=0;" parent="JdL9-djjlSlwG32NaNs0-411" vertex="1">
          <mxGeometry x="48.00000000000001" y="8.396846254927718" width="6.272727272727271" height="6.603153745072277" as="geometry" />
        </mxCell>
        <mxCell id="JdL9-djjlSlwG32NaNs0-322" value="" style="rounded=0;whiteSpace=wrap;html=1;strokeColor=none;fillColor=#000000;strokeWidth=0.5;movable=1;resizable=1;rotatable=1;deletable=1;editable=1;locked=0;connectable=1;container=0;" parent="JdL9-djjlSlwG32NaNs0-411" vertex="1">
          <mxGeometry x="55.99999999999998" width="6.272727272727271" height="6.603153745072277" as="geometry" />
        </mxCell>
        <mxCell id="JdL9-djjlSlwG32NaNs0-323" value="" style="rounded=0;whiteSpace=wrap;html=1;strokeColor=none;fillColor=#000000;strokeWidth=0.5;movable=1;resizable=1;rotatable=1;deletable=1;editable=1;locked=0;connectable=1;container=0;" parent="JdL9-djjlSlwG32NaNs0-411" vertex="1">
          <mxGeometry x="55.99999999999998" y="8.396846254927718" width="6.272727272727271" height="6.603153745072277" as="geometry" />
        </mxCell>
        <mxCell id="JdL9-djjlSlwG32NaNs0-324" value="" style="rounded=0;whiteSpace=wrap;html=1;strokeColor=none;fillColor=#000000;strokeWidth=0.5;movable=1;resizable=1;rotatable=1;deletable=1;editable=1;locked=0;connectable=1;container=0;" parent="JdL9-djjlSlwG32NaNs0-411" vertex="1">
          <mxGeometry x="63.99999999999998" width="6.272727272727271" height="6.603153745072277" as="geometry" />
        </mxCell>
        <mxCell id="JdL9-djjlSlwG32NaNs0-325" value="" style="rounded=0;whiteSpace=wrap;html=1;strokeColor=none;fillColor=#000000;strokeWidth=0.5;movable=1;resizable=1;rotatable=1;deletable=1;editable=1;locked=0;connectable=1;container=0;" parent="JdL9-djjlSlwG32NaNs0-411" vertex="1">
          <mxGeometry x="63.99999999999998" y="8.396846254927718" width="6.272727272727271" height="6.603153745072277" as="geometry" />
        </mxCell>
        <mxCell id="JdL9-djjlSlwG32NaNs0-326" value="" style="rounded=0;whiteSpace=wrap;html=1;strokeColor=none;fillColor=#000000;strokeWidth=0.5;movable=1;resizable=1;rotatable=1;deletable=1;editable=1;locked=0;connectable=1;container=0;" parent="JdL9-djjlSlwG32NaNs0-411" vertex="1">
          <mxGeometry x="72" width="6.272727272727271" height="6.603153745072277" as="geometry" />
        </mxCell>
        <mxCell id="JdL9-djjlSlwG32NaNs0-327" value="" style="rounded=0;whiteSpace=wrap;html=1;strokeColor=none;fillColor=#000000;strokeWidth=0.5;movable=1;resizable=1;rotatable=1;deletable=1;editable=1;locked=0;connectable=1;container=0;" parent="JdL9-djjlSlwG32NaNs0-411" vertex="1">
          <mxGeometry x="72" y="8.396846254927718" width="6.272727272727271" height="6.603153745072277" as="geometry" />
        </mxCell>
        <mxCell id="JdL9-djjlSlwG32NaNs0-328" value="" style="rounded=0;whiteSpace=wrap;html=1;strokeColor=none;fillColor=#000000;strokeWidth=0.5;movable=1;resizable=1;rotatable=1;deletable=1;editable=1;locked=0;connectable=1;container=0;" parent="JdL9-djjlSlwG32NaNs0-411" vertex="1">
          <mxGeometry x="80" width="6.272727272727271" height="6.603153745072277" as="geometry" />
        </mxCell>
        <mxCell id="JdL9-djjlSlwG32NaNs0-329" value="" style="rounded=0;whiteSpace=wrap;html=1;strokeColor=none;fillColor=#000000;strokeWidth=0.5;movable=1;resizable=1;rotatable=1;deletable=1;editable=1;locked=0;connectable=1;container=0;" parent="JdL9-djjlSlwG32NaNs0-411" vertex="1">
          <mxGeometry x="80" y="8.396846254927718" width="6.272727272727271" height="6.603153745072277" as="geometry" />
        </mxCell>
        <mxCell id="JdL9-djjlSlwG32NaNs0-330" value="" style="rounded=0;whiteSpace=wrap;html=1;strokeColor=none;fillColor=#000000;strokeWidth=0.5;movable=1;resizable=1;rotatable=1;deletable=1;editable=1;locked=0;connectable=1;container=0;" parent="JdL9-djjlSlwG32NaNs0-411" vertex="1">
          <mxGeometry x="88" width="6.272727272727271" height="6.603153745072277" as="geometry" />
        </mxCell>
        <mxCell id="JdL9-djjlSlwG32NaNs0-331" value="" style="rounded=0;whiteSpace=wrap;html=1;strokeColor=none;fillColor=#000000;strokeWidth=0.5;movable=1;resizable=1;rotatable=1;deletable=1;editable=1;locked=0;connectable=1;container=0;" parent="JdL9-djjlSlwG32NaNs0-411" vertex="1">
          <mxGeometry x="88" y="8.396846254927718" width="6.272727272727271" height="6.603153745072277" as="geometry" />
        </mxCell>
        <mxCell id="JdL9-djjlSlwG32NaNs0-332" value="" style="rounded=0;whiteSpace=wrap;html=1;strokeColor=none;fillColor=#000000;strokeWidth=0.5;movable=1;resizable=1;rotatable=1;deletable=1;editable=1;locked=0;connectable=1;container=0;" parent="JdL9-djjlSlwG32NaNs0-411" vertex="1">
          <mxGeometry x="95.99999999999997" width="6.272727272727271" height="6.603153745072277" as="geometry" />
        </mxCell>
        <mxCell id="JdL9-djjlSlwG32NaNs0-333" value="" style="rounded=0;whiteSpace=wrap;html=1;strokeColor=none;fillColor=#000000;strokeWidth=0.5;movable=1;resizable=1;rotatable=1;deletable=1;editable=1;locked=0;connectable=1;container=0;" parent="JdL9-djjlSlwG32NaNs0-411" vertex="1">
          <mxGeometry x="95.99999999999997" y="8.396846254927718" width="6.272727272727271" height="6.603153745072277" as="geometry" />
        </mxCell>
        <mxCell id="JdL9-djjlSlwG32NaNs0-334" value="" style="rounded=0;whiteSpace=wrap;html=1;strokeColor=none;fillColor=#000000;strokeWidth=0.5;movable=1;resizable=1;rotatable=1;deletable=1;editable=1;locked=0;connectable=1;container=0;" parent="JdL9-djjlSlwG32NaNs0-411" vertex="1">
          <mxGeometry x="103.99999999999997" width="6.272727272727271" height="6.603153745072277" as="geometry" />
        </mxCell>
        <mxCell id="JdL9-djjlSlwG32NaNs0-335" value="" style="rounded=0;whiteSpace=wrap;html=1;strokeColor=none;fillColor=#000000;strokeWidth=0.5;movable=1;resizable=1;rotatable=1;deletable=1;editable=1;locked=0;connectable=1;container=0;" parent="JdL9-djjlSlwG32NaNs0-411" vertex="1">
          <mxGeometry x="103.85454545454556" y="8.396846254927718" width="6.272727272727271" height="6.603153745072277" as="geometry" />
        </mxCell>
        <mxCell id="JdL9-djjlSlwG32NaNs0-336" value="" style="rounded=0;whiteSpace=wrap;html=1;strokeColor=none;fillColor=#000000;strokeWidth=0.5;movable=1;resizable=1;rotatable=1;deletable=1;editable=1;locked=0;connectable=1;container=0;" parent="JdL9-djjlSlwG32NaNs0-411" vertex="1">
          <mxGeometry x="111.99999999999997" width="6.272727272727271" height="6.603153745072277" as="geometry" />
        </mxCell>
        <mxCell id="JdL9-djjlSlwG32NaNs0-337" value="" style="rounded=0;whiteSpace=wrap;html=1;strokeColor=none;fillColor=#000000;strokeWidth=0.5;movable=1;resizable=1;rotatable=1;deletable=1;editable=1;locked=0;connectable=1;container=0;" parent="JdL9-djjlSlwG32NaNs0-411" vertex="1">
          <mxGeometry x="111.99999999999997" y="8.396846254927718" width="6.272727272727271" height="6.603153745072277" as="geometry" />
        </mxCell>
        <mxCell id="JdL9-djjlSlwG32NaNs0-338" value="" style="rounded=0;whiteSpace=wrap;html=1;strokeColor=none;fillColor=#000000;strokeWidth=0.5;movable=1;resizable=1;rotatable=1;deletable=1;editable=1;locked=0;connectable=1;container=0;" parent="JdL9-djjlSlwG32NaNs0-411" vertex="1">
          <mxGeometry x="119.99999999999994" width="6.272727272727271" height="6.603153745072277" as="geometry" />
        </mxCell>
        <mxCell id="JdL9-djjlSlwG32NaNs0-339" value="" style="rounded=0;whiteSpace=wrap;html=1;strokeColor=none;fillColor=#000000;strokeWidth=0.5;movable=1;resizable=1;rotatable=1;deletable=1;editable=1;locked=0;connectable=1;container=0;" parent="JdL9-djjlSlwG32NaNs0-411" vertex="1">
          <mxGeometry x="119.99999999999994" y="8.396846254927718" width="6.272727272727271" height="6.603153745072277" as="geometry" />
        </mxCell>
        <mxCell id="JdL9-djjlSlwG32NaNs0-449" value="" style="group;strokeColor=#222222;strokeWidth=1;" parent="PaUmts2U89IXsogHB_Yg-3" vertex="1" connectable="0">
          <mxGeometry x="19.83" y="16" width="136" height="15" as="geometry" />
        </mxCell>
        <mxCell id="JdL9-djjlSlwG32NaNs0-450" value="" style="rounded=0;whiteSpace=wrap;html=1;strokeColor=none;fillColor=#222222;strokeWidth=0.5;container=0;movable=1;resizable=1;rotatable=1;deletable=1;editable=1;locked=0;connectable=1;" parent="JdL9-djjlSlwG32NaNs0-449" vertex="1">
          <mxGeometry y="0.019710906701702776" width="136" height="15" as="geometry" />
        </mxCell>
        <mxCell id="JdL9-djjlSlwG32NaNs0-451" value="" style="group" parent="JdL9-djjlSlwG32NaNs0-449" vertex="1" connectable="0">
          <mxGeometry x="4.863636363635699" width="126.27272727272722" height="15" as="geometry" />
        </mxCell>
        <mxCell id="JdL9-djjlSlwG32NaNs0-452" value="" style="rounded=0;whiteSpace=wrap;html=1;strokeColor=none;fillColor=#000000;strokeWidth=0.5;movable=1;resizable=1;rotatable=1;deletable=1;editable=1;locked=0;connectable=1;container=0;" parent="JdL9-djjlSlwG32NaNs0-451" vertex="1">
          <mxGeometry width="6.272727272727271" height="6.603153745072277" as="geometry" />
        </mxCell>
        <mxCell id="JdL9-djjlSlwG32NaNs0-453" value="" style="rounded=0;whiteSpace=wrap;html=1;strokeColor=none;fillColor=#000000;strokeWidth=0.5;movable=1;resizable=1;rotatable=1;deletable=1;editable=1;locked=0;connectable=1;container=0;" parent="JdL9-djjlSlwG32NaNs0-451" vertex="1">
          <mxGeometry y="8.396846254927718" width="6.272727272727271" height="6.603153745072277" as="geometry" />
        </mxCell>
        <mxCell id="JdL9-djjlSlwG32NaNs0-454" value="" style="rounded=0;whiteSpace=wrap;html=1;strokeColor=none;fillColor=#000000;strokeWidth=0.5;movable=1;resizable=1;rotatable=1;deletable=1;editable=1;locked=0;connectable=1;container=0;" parent="JdL9-djjlSlwG32NaNs0-451" vertex="1">
          <mxGeometry x="8" width="6.272727272727271" height="6.603153745072277" as="geometry" />
        </mxCell>
        <mxCell id="JdL9-djjlSlwG32NaNs0-455" value="" style="rounded=0;whiteSpace=wrap;html=1;strokeColor=none;fillColor=#000000;strokeWidth=0.5;movable=1;resizable=1;rotatable=1;deletable=1;editable=1;locked=0;connectable=1;container=0;" parent="JdL9-djjlSlwG32NaNs0-451" vertex="1">
          <mxGeometry x="8" y="8.396846254927718" width="6.272727272727271" height="6.603153745072277" as="geometry" />
        </mxCell>
        <mxCell id="JdL9-djjlSlwG32NaNs0-456" value="" style="rounded=0;whiteSpace=wrap;html=1;strokeColor=none;fillColor=#000000;strokeWidth=0.5;movable=1;resizable=1;rotatable=1;deletable=1;editable=1;locked=0;connectable=1;container=0;" parent="JdL9-djjlSlwG32NaNs0-451" vertex="1">
          <mxGeometry x="15.999999999999986" width="6.272727272727271" height="6.603153745072277" as="geometry" />
        </mxCell>
        <mxCell id="JdL9-djjlSlwG32NaNs0-457" value="" style="rounded=0;whiteSpace=wrap;html=1;strokeColor=none;fillColor=#000000;strokeWidth=0.5;movable=1;resizable=1;rotatable=1;deletable=1;editable=1;locked=0;connectable=1;container=0;" parent="JdL9-djjlSlwG32NaNs0-451" vertex="1">
          <mxGeometry x="15.999999999999986" y="8.396846254927718" width="6.272727272727271" height="6.603153745072277" as="geometry" />
        </mxCell>
        <mxCell id="JdL9-djjlSlwG32NaNs0-458" value="" style="rounded=0;whiteSpace=wrap;html=1;strokeColor=none;fillColor=#000000;strokeWidth=0.5;movable=1;resizable=1;rotatable=1;deletable=1;editable=1;locked=0;connectable=1;container=0;" parent="JdL9-djjlSlwG32NaNs0-451" vertex="1">
          <mxGeometry x="23.999999999999993" width="6.272727272727271" height="6.603153745072277" as="geometry" />
        </mxCell>
        <mxCell id="JdL9-djjlSlwG32NaNs0-459" value="" style="rounded=0;whiteSpace=wrap;html=1;strokeColor=none;fillColor=#000000;strokeWidth=0.5;movable=1;resizable=1;rotatable=1;deletable=1;editable=1;locked=0;connectable=1;container=0;" parent="JdL9-djjlSlwG32NaNs0-451" vertex="1">
          <mxGeometry x="23.999999999999993" y="8.396846254927718" width="6.272727272727271" height="6.603153745072277" as="geometry" />
        </mxCell>
        <mxCell id="JdL9-djjlSlwG32NaNs0-460" value="" style="rounded=0;whiteSpace=wrap;html=1;strokeColor=none;fillColor=#000000;strokeWidth=0.5;movable=1;resizable=1;rotatable=1;deletable=1;editable=1;locked=0;connectable=1;container=0;" parent="JdL9-djjlSlwG32NaNs0-451" vertex="1">
          <mxGeometry x="32.00000000000001" width="6.272727272727271" height="6.603153745072277" as="geometry" />
        </mxCell>
        <mxCell id="JdL9-djjlSlwG32NaNs0-461" value="" style="rounded=0;whiteSpace=wrap;html=1;strokeColor=none;fillColor=#000000;strokeWidth=0.5;movable=1;resizable=1;rotatable=1;deletable=1;editable=1;locked=0;connectable=1;container=0;" parent="JdL9-djjlSlwG32NaNs0-451" vertex="1">
          <mxGeometry x="32.00000000000001" y="8.396846254927718" width="6.272727272727271" height="6.603153745072277" as="geometry" />
        </mxCell>
        <mxCell id="JdL9-djjlSlwG32NaNs0-462" value="" style="rounded=0;whiteSpace=wrap;html=1;strokeColor=none;fillColor=#000000;strokeWidth=0.5;movable=1;resizable=1;rotatable=1;deletable=1;editable=1;locked=0;connectable=1;container=0;" parent="JdL9-djjlSlwG32NaNs0-451" vertex="1">
          <mxGeometry x="39.99999999999999" width="6.272727272727271" height="6.603153745072277" as="geometry" />
        </mxCell>
        <mxCell id="JdL9-djjlSlwG32NaNs0-463" value="" style="rounded=0;whiteSpace=wrap;html=1;strokeColor=none;fillColor=#000000;strokeWidth=0.5;movable=1;resizable=1;rotatable=1;deletable=1;editable=1;locked=0;connectable=1;container=0;" parent="JdL9-djjlSlwG32NaNs0-451" vertex="1">
          <mxGeometry x="39.99999999999999" y="8.396846254927718" width="6.272727272727271" height="6.603153745072277" as="geometry" />
        </mxCell>
        <mxCell id="JdL9-djjlSlwG32NaNs0-464" value="" style="rounded=0;whiteSpace=wrap;html=1;strokeColor=none;fillColor=#000000;strokeWidth=0.5;movable=1;resizable=1;rotatable=1;deletable=1;editable=1;locked=0;connectable=1;container=0;" parent="JdL9-djjlSlwG32NaNs0-451" vertex="1">
          <mxGeometry x="48.00000000000001" width="6.272727272727271" height="6.603153745072277" as="geometry" />
        </mxCell>
        <mxCell id="JdL9-djjlSlwG32NaNs0-465" value="" style="rounded=0;whiteSpace=wrap;html=1;strokeColor=none;fillColor=#000000;strokeWidth=0.5;movable=1;resizable=1;rotatable=1;deletable=1;editable=1;locked=0;connectable=1;container=0;" parent="JdL9-djjlSlwG32NaNs0-451" vertex="1">
          <mxGeometry x="48.00000000000001" y="8.396846254927718" width="6.272727272727271" height="6.603153745072277" as="geometry" />
        </mxCell>
        <mxCell id="JdL9-djjlSlwG32NaNs0-466" value="" style="rounded=0;whiteSpace=wrap;html=1;strokeColor=none;fillColor=#000000;strokeWidth=0.5;movable=1;resizable=1;rotatable=1;deletable=1;editable=1;locked=0;connectable=1;container=0;" parent="JdL9-djjlSlwG32NaNs0-451" vertex="1">
          <mxGeometry x="55.99999999999998" width="6.272727272727271" height="6.603153745072277" as="geometry" />
        </mxCell>
        <mxCell id="JdL9-djjlSlwG32NaNs0-467" value="" style="rounded=0;whiteSpace=wrap;html=1;strokeColor=none;fillColor=#000000;strokeWidth=0.5;movable=1;resizable=1;rotatable=1;deletable=1;editable=1;locked=0;connectable=1;container=0;" parent="JdL9-djjlSlwG32NaNs0-451" vertex="1">
          <mxGeometry x="55.99999999999998" y="8.396846254927718" width="6.272727272727271" height="6.603153745072277" as="geometry" />
        </mxCell>
        <mxCell id="JdL9-djjlSlwG32NaNs0-468" value="" style="rounded=0;whiteSpace=wrap;html=1;strokeColor=none;fillColor=#000000;strokeWidth=0.5;movable=1;resizable=1;rotatable=1;deletable=1;editable=1;locked=0;connectable=1;container=0;" parent="JdL9-djjlSlwG32NaNs0-451" vertex="1">
          <mxGeometry x="63.99999999999998" width="6.272727272727271" height="6.603153745072277" as="geometry" />
        </mxCell>
        <mxCell id="JdL9-djjlSlwG32NaNs0-469" value="" style="rounded=0;whiteSpace=wrap;html=1;strokeColor=none;fillColor=#000000;strokeWidth=0.5;movable=1;resizable=1;rotatable=1;deletable=1;editable=1;locked=0;connectable=1;container=0;" parent="JdL9-djjlSlwG32NaNs0-451" vertex="1">
          <mxGeometry x="63.99999999999998" y="8.396846254927718" width="6.272727272727271" height="6.603153745072277" as="geometry" />
        </mxCell>
        <mxCell id="JdL9-djjlSlwG32NaNs0-470" value="" style="rounded=0;whiteSpace=wrap;html=1;strokeColor=none;fillColor=#000000;strokeWidth=0.5;movable=1;resizable=1;rotatable=1;deletable=1;editable=1;locked=0;connectable=1;container=0;" parent="JdL9-djjlSlwG32NaNs0-451" vertex="1">
          <mxGeometry x="72" width="6.272727272727271" height="6.603153745072277" as="geometry" />
        </mxCell>
        <mxCell id="JdL9-djjlSlwG32NaNs0-471" value="" style="rounded=0;whiteSpace=wrap;html=1;strokeColor=none;fillColor=#000000;strokeWidth=0.5;movable=1;resizable=1;rotatable=1;deletable=1;editable=1;locked=0;connectable=1;container=0;" parent="JdL9-djjlSlwG32NaNs0-451" vertex="1">
          <mxGeometry x="72" y="8.396846254927718" width="6.272727272727271" height="6.603153745072277" as="geometry" />
        </mxCell>
        <mxCell id="JdL9-djjlSlwG32NaNs0-472" value="" style="rounded=0;whiteSpace=wrap;html=1;strokeColor=none;fillColor=#000000;strokeWidth=0.5;movable=1;resizable=1;rotatable=1;deletable=1;editable=1;locked=0;connectable=1;container=0;" parent="JdL9-djjlSlwG32NaNs0-451" vertex="1">
          <mxGeometry x="80" width="6.272727272727271" height="6.603153745072277" as="geometry" />
        </mxCell>
        <mxCell id="JdL9-djjlSlwG32NaNs0-473" value="" style="rounded=0;whiteSpace=wrap;html=1;strokeColor=none;fillColor=#000000;strokeWidth=0.5;movable=1;resizable=1;rotatable=1;deletable=1;editable=1;locked=0;connectable=1;container=0;" parent="JdL9-djjlSlwG32NaNs0-451" vertex="1">
          <mxGeometry x="80" y="8.396846254927718" width="6.272727272727271" height="6.603153745072277" as="geometry" />
        </mxCell>
        <mxCell id="JdL9-djjlSlwG32NaNs0-474" value="" style="rounded=0;whiteSpace=wrap;html=1;strokeColor=none;fillColor=#000000;strokeWidth=0.5;movable=1;resizable=1;rotatable=1;deletable=1;editable=1;locked=0;connectable=1;container=0;" parent="JdL9-djjlSlwG32NaNs0-451" vertex="1">
          <mxGeometry x="88" width="6.272727272727271" height="6.603153745072277" as="geometry" />
        </mxCell>
        <mxCell id="JdL9-djjlSlwG32NaNs0-475" value="" style="rounded=0;whiteSpace=wrap;html=1;strokeColor=none;fillColor=#000000;strokeWidth=0.5;movable=1;resizable=1;rotatable=1;deletable=1;editable=1;locked=0;connectable=1;container=0;" parent="JdL9-djjlSlwG32NaNs0-451" vertex="1">
          <mxGeometry x="88" y="8.396846254927718" width="6.272727272727271" height="6.603153745072277" as="geometry" />
        </mxCell>
        <mxCell id="JdL9-djjlSlwG32NaNs0-476" value="" style="rounded=0;whiteSpace=wrap;html=1;strokeColor=none;fillColor=#000000;strokeWidth=0.5;movable=1;resizable=1;rotatable=1;deletable=1;editable=1;locked=0;connectable=1;container=0;" parent="JdL9-djjlSlwG32NaNs0-451" vertex="1">
          <mxGeometry x="95.99999999999997" width="6.272727272727271" height="6.603153745072277" as="geometry" />
        </mxCell>
        <mxCell id="JdL9-djjlSlwG32NaNs0-477" value="" style="rounded=0;whiteSpace=wrap;html=1;strokeColor=none;fillColor=#000000;strokeWidth=0.5;movable=1;resizable=1;rotatable=1;deletable=1;editable=1;locked=0;connectable=1;container=0;" parent="JdL9-djjlSlwG32NaNs0-451" vertex="1">
          <mxGeometry x="95.99999999999997" y="8.396846254927718" width="6.272727272727271" height="6.603153745072277" as="geometry" />
        </mxCell>
        <mxCell id="JdL9-djjlSlwG32NaNs0-478" value="" style="rounded=0;whiteSpace=wrap;html=1;strokeColor=none;fillColor=#000000;strokeWidth=0.5;movable=1;resizable=1;rotatable=1;deletable=1;editable=1;locked=0;connectable=1;container=0;" parent="JdL9-djjlSlwG32NaNs0-451" vertex="1">
          <mxGeometry x="103.99999999999997" width="6.272727272727271" height="6.603153745072277" as="geometry" />
        </mxCell>
        <mxCell id="JdL9-djjlSlwG32NaNs0-479" value="" style="rounded=0;whiteSpace=wrap;html=1;strokeColor=none;fillColor=#000000;strokeWidth=0.5;movable=1;resizable=1;rotatable=1;deletable=1;editable=1;locked=0;connectable=1;container=0;" parent="JdL9-djjlSlwG32NaNs0-451" vertex="1">
          <mxGeometry x="103.85454545454556" y="8.396846254927718" width="6.272727272727271" height="6.603153745072277" as="geometry" />
        </mxCell>
        <mxCell id="JdL9-djjlSlwG32NaNs0-480" value="" style="rounded=0;whiteSpace=wrap;html=1;strokeColor=none;fillColor=#000000;strokeWidth=0.5;movable=1;resizable=1;rotatable=1;deletable=1;editable=1;locked=0;connectable=1;container=0;" parent="JdL9-djjlSlwG32NaNs0-451" vertex="1">
          <mxGeometry x="111.99999999999997" width="6.272727272727271" height="6.603153745072277" as="geometry" />
        </mxCell>
        <mxCell id="JdL9-djjlSlwG32NaNs0-481" value="" style="rounded=0;whiteSpace=wrap;html=1;strokeColor=none;fillColor=#000000;strokeWidth=0.5;movable=1;resizable=1;rotatable=1;deletable=1;editable=1;locked=0;connectable=1;container=0;" parent="JdL9-djjlSlwG32NaNs0-451" vertex="1">
          <mxGeometry x="111.99999999999997" y="8.396846254927718" width="6.272727272727271" height="6.603153745072277" as="geometry" />
        </mxCell>
        <mxCell id="JdL9-djjlSlwG32NaNs0-482" value="" style="rounded=0;whiteSpace=wrap;html=1;strokeColor=none;fillColor=#000000;strokeWidth=0.5;movable=1;resizable=1;rotatable=1;deletable=1;editable=1;locked=0;connectable=1;container=0;" parent="JdL9-djjlSlwG32NaNs0-451" vertex="1">
          <mxGeometry x="119.99999999999994" width="6.272727272727271" height="6.603153745072277" as="geometry" />
        </mxCell>
        <mxCell id="JdL9-djjlSlwG32NaNs0-483" value="" style="rounded=0;whiteSpace=wrap;html=1;strokeColor=none;fillColor=#000000;strokeWidth=0.5;movable=1;resizable=1;rotatable=1;deletable=1;editable=1;locked=0;connectable=1;container=0;" parent="JdL9-djjlSlwG32NaNs0-451" vertex="1">
          <mxGeometry x="119.99999999999994" y="8.396846254927718" width="6.272727272727271" height="6.603153745072277" as="geometry" />
        </mxCell>
        <mxCell id="JdL9-djjlSlwG32NaNs0-484" value="" style="group;fillColor=#222222;" parent="PaUmts2U89IXsogHB_Yg-3" vertex="1" connectable="0">
          <mxGeometry x="158.28" y="9.737391304347824" width="81" height="13.30434782608696" as="geometry" />
        </mxCell>
        <mxCell id="JdL9-djjlSlwG32NaNs0-223" value="" style="rounded=0;whiteSpace=wrap;html=1;strokeColor=#001DBC;fillColor=#222222;strokeWidth=0.2;container=0;fontColor=#ffffff;movable=1;resizable=1;rotatable=1;deletable=1;editable=1;locked=0;connectable=1;" parent="JdL9-djjlSlwG32NaNs0-484" vertex="1">
          <mxGeometry width="81" height="13.304347826086957" as="geometry" />
        </mxCell>
        <mxCell id="JdL9-djjlSlwG32NaNs0-224" value="" style="ellipse;whiteSpace=wrap;html=1;strokeColor=none;fillColor=#60a917;fontColor=#ffffff;movable=1;resizable=1;rotatable=1;deletable=1;editable=1;locked=0;connectable=1;container=0;" parent="JdL9-djjlSlwG32NaNs0-484" vertex="1">
          <mxGeometry x="16.5" y="7.3913043478261" width="4.5" height="4.434782608695652" as="geometry" />
        </mxCell>
        <mxCell id="JdL9-djjlSlwG32NaNs0-225" value="" style="ellipse;whiteSpace=wrap;html=1;strokeColor=none;fillColor=#0050ef;fontColor=#ffffff;movable=1;resizable=1;rotatable=1;deletable=1;editable=1;locked=0;connectable=1;container=0;" parent="JdL9-djjlSlwG32NaNs0-484" vertex="1">
          <mxGeometry x="21.74999999999997" y="7.3913043478261" width="4.5" height="4.434782608695652" as="geometry" />
        </mxCell>
        <mxCell id="JdL9-djjlSlwG32NaNs0-226" value="" style="ellipse;whiteSpace=wrap;html=1;strokeColor=none;fillColor=#0050ef;fontColor=#ffffff;movable=1;resizable=1;rotatable=1;deletable=1;editable=1;locked=0;connectable=1;container=0;" parent="JdL9-djjlSlwG32NaNs0-484" vertex="1">
          <mxGeometry x="26.99999999999997" y="7.3913043478261" width="4.5" height="4.434782608695652" as="geometry" />
        </mxCell>
        <mxCell id="JdL9-djjlSlwG32NaNs0-227" value="" style="ellipse;whiteSpace=wrap;html=1;strokeColor=none;fillColor=#0050ef;fontColor=#ffffff;movable=1;resizable=1;rotatable=1;deletable=1;editable=1;locked=0;connectable=1;container=0;" parent="JdL9-djjlSlwG32NaNs0-484" vertex="1">
          <mxGeometry x="32.25" y="7.3913043478261" width="4.5" height="4.434782608695652" as="geometry" />
        </mxCell>
        <mxCell id="JdL9-djjlSlwG32NaNs0-228" value="" style="ellipse;whiteSpace=wrap;html=1;strokeColor=none;fillColor=#a20025;fontColor=#ffffff;movable=1;resizable=1;rotatable=1;deletable=1;editable=1;locked=0;connectable=1;container=0;" parent="JdL9-djjlSlwG32NaNs0-484" vertex="1">
          <mxGeometry x="42.75" y="7.3913043478261" width="4.5" height="4.434782608695652" as="geometry" />
        </mxCell>
        <mxCell id="JdL9-djjlSlwG32NaNs0-229" value="" style="ellipse;whiteSpace=wrap;html=1;strokeColor=none;fillColor=#0050ef;fontColor=#ffffff;movable=1;resizable=1;rotatable=1;deletable=1;editable=1;locked=0;connectable=1;container=0;" parent="JdL9-djjlSlwG32NaNs0-484" vertex="1">
          <mxGeometry x="37.5" y="7.3913043478261" width="4.5" height="4.434782608695652" as="geometry" />
        </mxCell>
        <mxCell id="JdL9-djjlSlwG32NaNs0-230" value="" style="ellipse;whiteSpace=wrap;html=1;strokeColor=none;fillColor=#0050ef;fontColor=#ffffff;movable=1;resizable=1;rotatable=1;deletable=1;editable=1;locked=0;connectable=1;container=0;" parent="JdL9-djjlSlwG32NaNs0-484" vertex="1">
          <mxGeometry x="9" y="5.913043478260882" width="6" height="5.913043478260869" as="geometry" />
        </mxCell>
        <mxCell id="JdL9-djjlSlwG32NaNs0-231" value="" style="ellipse;whiteSpace=wrap;html=1;strokeColor=none;fillColor=#0050ef;fontColor=#ffffff;movable=1;resizable=1;rotatable=1;deletable=1;editable=1;locked=0;connectable=1;container=0;" parent="JdL9-djjlSlwG32NaNs0-484" vertex="1">
          <mxGeometry x="1.4999999999999716" y="5.913043478260882" width="6" height="5.913043478260869" as="geometry" />
        </mxCell>
        <mxCell id="JdL9-djjlSlwG32NaNs0-232" value="" style="sketch=0;pointerEvents=1;shadow=0;dashed=0;html=1;strokeColor=none;labelPosition=center;verticalLabelPosition=bottom;verticalAlign=top;align=center;fillColor=#FFFFFF;shape=mxgraph.mscae.enterprise.usb;movable=1;resizable=1;rotatable=1;deletable=1;editable=1;locked=0;connectable=1;container=0;" parent="JdL9-djjlSlwG32NaNs0-484" vertex="1">
          <mxGeometry x="52.79999999999973" y="1.4782608695652257" width="6.51" height="2.9565217391304346" as="geometry" />
        </mxCell>
        <mxCell id="JdL9-djjlSlwG32NaNs0-233" value="" style="sketch=0;pointerEvents=1;shadow=0;dashed=0;html=1;strokeColor=none;labelPosition=center;verticalLabelPosition=bottom;verticalAlign=top;align=center;fillColor=#FFFFFF;shape=mxgraph.mscae.enterprise.usb;movable=1;resizable=1;rotatable=1;deletable=1;editable=1;locked=0;connectable=1;container=0;" parent="JdL9-djjlSlwG32NaNs0-484" vertex="1">
          <mxGeometry x="68.75999999999951" y="1.4782608695652257" width="6.51" height="2.9565217391304346" as="geometry" />
        </mxCell>
        <mxCell id="JdL9-djjlSlwG32NaNs0-234" value="" style="sketch=0;html=1;strokeColor=none;shadow=0;fillColor=#FFFFFF;verticalAlign=top;labelPosition=center;verticalLabelPosition=bottom;shape=mxgraph.gcp2.a7_power;gradientColor=none;movable=1;resizable=1;rotatable=1;deletable=1;editable=1;locked=0;connectable=1;container=0;" parent="JdL9-djjlSlwG32NaNs0-484" vertex="1">
          <mxGeometry x="3" y="1.4782608695652257" width="3" height="2.9565217391304346" as="geometry" />
        </mxCell>
        <mxCell id="JdL9-djjlSlwG32NaNs0-235" value="" style="verticalLabelPosition=bottom;shadow=0;dashed=0;align=center;html=1;verticalAlign=top;shape=mxgraph.electrical.radio.loop_antenna;strokeColor=default;fillColor=none;strokeWidth=0.1;rotation=-180;movable=1;resizable=1;rotatable=1;deletable=1;editable=1;locked=0;connectable=1;container=0;" parent="JdL9-djjlSlwG32NaNs0-484" vertex="1">
          <mxGeometry x="10.500000000000682" y="1.4782608695652257" width="3" height="2.9565217391304346" as="geometry" />
        </mxCell>
        <mxCell id="JdL9-djjlSlwG32NaNs0-236" value="" style="strokeWidth=0.1;html=1;shape=mxgraph.flowchart.database;whiteSpace=wrap;strokeColor=default;fillColor=none;movable=1;resizable=1;rotatable=1;deletable=1;editable=1;locked=0;connectable=1;container=0;" parent="JdL9-djjlSlwG32NaNs0-484" vertex="1">
          <mxGeometry x="22.5" y="1.4782608695652257" width="3" height="2.9565217391304346" as="geometry" />
        </mxCell>
        <mxCell id="JdL9-djjlSlwG32NaNs0-237" value="" style="sketch=0;pointerEvents=1;shadow=0;dashed=0;html=1;strokeColor=none;fillColor=#FFFFFF;labelPosition=center;verticalLabelPosition=bottom;verticalAlign=top;align=center;outlineConnect=0;shape=mxgraph.vvd.infrastructure;movable=1;resizable=1;rotatable=1;deletable=1;editable=1;locked=0;connectable=1;container=0;" parent="JdL9-djjlSlwG32NaNs0-484" vertex="1">
          <mxGeometry x="27.74999999999997" y="1.4782608695652257" width="3" height="2.9565217391304346" as="geometry" />
        </mxCell>
        <mxCell id="JdL9-djjlSlwG32NaNs0-238" value="" style="sketch=0;pointerEvents=1;shadow=0;dashed=0;html=1;strokeColor=none;fillColor=#FFFFFF;labelPosition=center;verticalLabelPosition=bottom;verticalAlign=top;align=center;outlineConnect=0;shape=mxgraph.vvd.infrastructure;movable=1;resizable=1;rotatable=1;deletable=1;editable=1;locked=0;connectable=1;container=0;" parent="JdL9-djjlSlwG32NaNs0-484" vertex="1">
          <mxGeometry x="32.99999999999997" y="1.4782608695652257" width="3" height="2.9565217391304346" as="geometry" />
        </mxCell>
        <mxCell id="JdL9-djjlSlwG32NaNs0-239" value="" style="sketch=0;pointerEvents=1;shadow=0;dashed=0;html=1;strokeColor=none;fillColor=#FFFFFF;labelPosition=center;verticalLabelPosition=bottom;verticalAlign=top;align=center;outlineConnect=0;shape=mxgraph.vvd.infrastructure;movable=1;resizable=1;rotatable=1;deletable=1;editable=1;locked=0;connectable=1;container=0;" parent="JdL9-djjlSlwG32NaNs0-484" vertex="1">
          <mxGeometry x="38.25" y="1.4782608695652257" width="3" height="2.9565217391304346" as="geometry" />
        </mxCell>
        <mxCell id="JdL9-djjlSlwG32NaNs0-240" value="" style="triangle;whiteSpace=wrap;html=1;rotation=-90;fillColor=none;strokeWidth=0.1;movable=1;resizable=1;rotatable=1;deletable=1;editable=1;locked=0;connectable=1;container=0;" parent="JdL9-djjlSlwG32NaNs0-484" vertex="1">
          <mxGeometry x="43.5" y="1.4782608695652257" width="3" height="2.9565217391304346" as="geometry" />
        </mxCell>
        <mxCell id="JdL9-djjlSlwG32NaNs0-241" value="" style="sketch=0;html=1;strokeColor=default;shadow=0;fillColor=none;verticalAlign=top;labelPosition=center;verticalLabelPosition=bottom;shape=mxgraph.gcp2.a7_power;gradientColor=none;strokeWidth=0.1;movable=1;resizable=1;rotatable=1;deletable=1;editable=1;locked=0;connectable=1;container=0;" parent="JdL9-djjlSlwG32NaNs0-484" vertex="1">
          <mxGeometry x="17.25" y="1.4782608695652257" width="3" height="2.9565217391304346" as="geometry" />
        </mxCell>
        <mxCell id="JdL9-djjlSlwG32NaNs0-242" value="" style="rounded=0;whiteSpace=wrap;html=1;strokeColor=#aaaaaa;fillColor=#000000;strokeWidth=0.1;movable=1;resizable=1;rotatable=1;deletable=1;editable=1;locked=0;connectable=1;container=0;" parent="JdL9-djjlSlwG32NaNs0-484" vertex="1">
          <mxGeometry x="64.5" y="5.913043478260882" width="14.999999999999998" height="5.913043478260869" as="geometry" />
        </mxCell>
        <mxCell id="JdL9-djjlSlwG32NaNs0-243" value="" style="rounded=0;whiteSpace=wrap;html=1;strokeColor=none;fillColor=#0050ef;strokeWidth=0.5;fontColor=#ffffff;movable=1;resizable=1;rotatable=1;deletable=1;editable=1;locked=0;connectable=1;container=0;" parent="JdL9-djjlSlwG32NaNs0-484" vertex="1">
          <mxGeometry x="65.99999999999997" y="7.3913043478261" width="12" height="1.4782608695652173" as="geometry" />
        </mxCell>
        <mxCell id="JdL9-djjlSlwG32NaNs0-244" value="" style="rounded=0;whiteSpace=wrap;html=1;strokeColor=#aaaaaa;fillColor=#000000;strokeWidth=0.1;movable=1;resizable=1;rotatable=1;deletable=1;editable=1;locked=0;connectable=1;container=0;" parent="JdL9-djjlSlwG32NaNs0-484" vertex="1">
          <mxGeometry x="48.54000000000019" y="5.913043478260882" width="14.999999999999998" height="5.913043478260869" as="geometry" />
        </mxCell>
        <mxCell id="JdL9-djjlSlwG32NaNs0-245" value="" style="rounded=0;whiteSpace=wrap;html=1;strokeColor=none;fillColor=#0050ef;strokeWidth=0.5;fontColor=#ffffff;movable=1;resizable=1;rotatable=1;deletable=1;editable=1;locked=0;connectable=1;container=0;" parent="JdL9-djjlSlwG32NaNs0-484" vertex="1">
          <mxGeometry x="50.04000000000019" y="7.3913043478261" width="12" height="1.4782608695652173" as="geometry" />
        </mxCell>
        <mxCell id="JdL9-djjlSlwG32NaNs0-162" value="" style="rounded=0;whiteSpace=wrap;html=1;strokeColor=none;fillColor=#222222;strokeWidth=0.5;container=0;movable=1;resizable=1;rotatable=1;deletable=1;editable=1;locked=0;connectable=1;" parent="PaUmts2U89IXsogHB_Yg-3" vertex="1">
          <mxGeometry x="241.82750000000007" y="1.350833333333334" width="109.95212765957446" height="30.039166666666667" as="geometry" />
        </mxCell>
        <mxCell id="JdL9-djjlSlwG32NaNs0-163" value="" style="rounded=0;whiteSpace=wrap;html=1;strokeColor=#222222;fillColor=#000000;strokeWidth=0.5;movable=1;resizable=1;rotatable=1;deletable=1;editable=1;locked=0;connectable=1;container=0;" parent="PaUmts2U89IXsogHB_Yg-3" vertex="1">
          <mxGeometry x="245.09965584049576" y="4.381666666666668" width="7.281597858249963" height="7.408333333333333" as="geometry" />
        </mxCell>
        <mxCell id="JdL9-djjlSlwG32NaNs0-164" value="" style="rounded=0;whiteSpace=wrap;html=1;strokeColor=#222222;fillColor=#000000;strokeWidth=0.5;movable=1;resizable=1;rotatable=1;deletable=1;editable=1;locked=0;connectable=1;container=0;" parent="PaUmts2U89IXsogHB_Yg-3" vertex="1">
          <mxGeometry x="245.09965584049576" y="12.530833333333348" width="7.281597858249963" height="7.408333333333333" as="geometry" />
        </mxCell>
        <mxCell id="JdL9-djjlSlwG32NaNs0-165" value="" style="rounded=0;whiteSpace=wrap;html=1;strokeColor=#222222;fillColor=#000000;strokeWidth=0.5;movable=1;resizable=1;rotatable=1;deletable=1;editable=1;locked=0;connectable=1;container=0;" parent="PaUmts2U89IXsogHB_Yg-3" vertex="1">
          <mxGeometry x="253.10941348457072" y="4.381666666666668" width="7.281597858249963" height="7.408333333333333" as="geometry" />
        </mxCell>
        <mxCell id="JdL9-djjlSlwG32NaNs0-166" value="" style="rounded=0;whiteSpace=wrap;html=1;strokeColor=#222222;fillColor=#000000;strokeWidth=0.5;movable=1;resizable=1;rotatable=1;deletable=1;editable=1;locked=0;connectable=1;container=0;" parent="PaUmts2U89IXsogHB_Yg-3" vertex="1">
          <mxGeometry x="253.10941348457072" y="12.530833333333348" width="7.281597858249963" height="7.408333333333333" as="geometry" />
        </mxCell>
        <mxCell id="JdL9-djjlSlwG32NaNs0-167" value="" style="rounded=0;whiteSpace=wrap;html=1;strokeColor=#222222;fillColor=#000000;strokeWidth=0.5;movable=1;resizable=1;rotatable=1;deletable=1;editable=1;locked=0;connectable=1;container=0;" parent="PaUmts2U89IXsogHB_Yg-3" vertex="1">
          <mxGeometry x="261.11917112864563" y="4.381666666666668" width="7.281597858249963" height="7.408333333333333" as="geometry" />
        </mxCell>
        <mxCell id="JdL9-djjlSlwG32NaNs0-168" value="" style="rounded=0;whiteSpace=wrap;html=1;strokeColor=#222222;fillColor=#000000;strokeWidth=0.5;movable=1;resizable=1;rotatable=1;deletable=1;editable=1;locked=0;connectable=1;container=0;" parent="PaUmts2U89IXsogHB_Yg-3" vertex="1">
          <mxGeometry x="261.11917112864563" y="12.530833333333348" width="7.281597858249963" height="7.408333333333333" as="geometry" />
        </mxCell>
        <mxCell id="JdL9-djjlSlwG32NaNs0-169" value="" style="rounded=0;whiteSpace=wrap;html=1;strokeColor=#222222;fillColor=#000000;strokeWidth=0.5;movable=1;resizable=1;rotatable=1;deletable=1;editable=1;locked=0;connectable=1;container=0;" parent="PaUmts2U89IXsogHB_Yg-3" vertex="1">
          <mxGeometry x="269.1289287727206" y="4.381666666666668" width="7.281597858249963" height="7.408333333333333" as="geometry" />
        </mxCell>
        <mxCell id="JdL9-djjlSlwG32NaNs0-170" value="" style="rounded=0;whiteSpace=wrap;html=1;strokeColor=#222222;fillColor=#000000;strokeWidth=0.5;movable=1;resizable=1;rotatable=1;deletable=1;editable=1;locked=0;connectable=1;container=0;" parent="PaUmts2U89IXsogHB_Yg-3" vertex="1">
          <mxGeometry x="269.1289287727206" y="12.530833333333348" width="7.281597858249963" height="7.408333333333333" as="geometry" />
        </mxCell>
        <mxCell id="JdL9-djjlSlwG32NaNs0-171" value="" style="rounded=0;whiteSpace=wrap;html=1;strokeColor=#222222;fillColor=#000000;strokeWidth=0.5;movable=1;resizable=1;rotatable=1;deletable=1;editable=1;locked=0;connectable=1;container=0;" parent="PaUmts2U89IXsogHB_Yg-3" vertex="1">
          <mxGeometry x="277.13868641679557" y="4.381666666666668" width="7.281597858249963" height="7.408333333333333" as="geometry" />
        </mxCell>
        <mxCell id="JdL9-djjlSlwG32NaNs0-172" value="" style="rounded=0;whiteSpace=wrap;html=1;strokeColor=#222222;fillColor=#000000;strokeWidth=0.5;movable=1;resizable=1;rotatable=1;deletable=1;editable=1;locked=0;connectable=1;container=0;" parent="PaUmts2U89IXsogHB_Yg-3" vertex="1">
          <mxGeometry x="277.13868641679557" y="12.530833333333348" width="7.281597858249963" height="7.408333333333333" as="geometry" />
        </mxCell>
        <mxCell id="JdL9-djjlSlwG32NaNs0-173" value="" style="rounded=0;whiteSpace=wrap;html=1;strokeColor=#222222;fillColor=#000000;strokeWidth=0.5;movable=1;resizable=1;rotatable=1;deletable=1;editable=1;locked=0;connectable=1;container=0;" parent="PaUmts2U89IXsogHB_Yg-3" vertex="1">
          <mxGeometry x="285.14844406087053" y="4.381666666666668" width="7.281597858249963" height="7.408333333333333" as="geometry" />
        </mxCell>
        <mxCell id="JdL9-djjlSlwG32NaNs0-174" value="" style="rounded=0;whiteSpace=wrap;html=1;strokeColor=#222222;fillColor=#000000;strokeWidth=0.5;movable=1;resizable=1;rotatable=1;deletable=1;editable=1;locked=0;connectable=1;container=0;" parent="PaUmts2U89IXsogHB_Yg-3" vertex="1">
          <mxGeometry x="285.14844406087053" y="12.530833333333348" width="7.281597858249963" height="7.408333333333333" as="geometry" />
        </mxCell>
        <mxCell id="JdL9-djjlSlwG32NaNs0-175" value="" style="rounded=0;whiteSpace=wrap;html=1;strokeColor=#222222;fillColor=#000000;strokeWidth=0.5;movable=1;resizable=1;rotatable=1;deletable=1;editable=1;locked=0;connectable=1;container=0;" parent="PaUmts2U89IXsogHB_Yg-3" vertex="1">
          <mxGeometry x="293.1582017049455" y="4.381666666666668" width="7.281597858249963" height="7.408333333333333" as="geometry" />
        </mxCell>
        <mxCell id="JdL9-djjlSlwG32NaNs0-176" value="" style="rounded=0;whiteSpace=wrap;html=1;strokeColor=#222222;fillColor=#000000;strokeWidth=0.5;movable=1;resizable=1;rotatable=1;deletable=1;editable=1;locked=0;connectable=1;container=0;" parent="PaUmts2U89IXsogHB_Yg-3" vertex="1">
          <mxGeometry x="293.1582017049455" y="12.530833333333348" width="7.281597858249963" height="7.408333333333333" as="geometry" />
        </mxCell>
        <mxCell id="JdL9-djjlSlwG32NaNs0-177" value="" style="rounded=0;whiteSpace=wrap;html=1;strokeColor=#222222;fillColor=#000000;strokeWidth=0.5;movable=1;resizable=1;rotatable=1;deletable=1;editable=1;locked=0;connectable=1;container=0;" parent="PaUmts2U89IXsogHB_Yg-3" vertex="1">
          <mxGeometry x="301.16795934902046" y="4.381666666666668" width="7.281597858249963" height="7.408333333333333" as="geometry" />
        </mxCell>
        <mxCell id="JdL9-djjlSlwG32NaNs0-178" value="" style="rounded=0;whiteSpace=wrap;html=1;strokeColor=#222222;fillColor=#000000;strokeWidth=0.5;movable=1;resizable=1;rotatable=1;deletable=1;editable=1;locked=0;connectable=1;container=0;" parent="PaUmts2U89IXsogHB_Yg-3" vertex="1">
          <mxGeometry x="301.16795934902046" y="12.530833333333348" width="7.281597858249963" height="7.408333333333333" as="geometry" />
        </mxCell>
        <mxCell id="JdL9-djjlSlwG32NaNs0-179" value="" style="rounded=0;whiteSpace=wrap;html=1;strokeColor=#222222;fillColor=#000000;strokeWidth=0.5;movable=1;resizable=1;rotatable=1;deletable=1;editable=1;locked=0;connectable=1;container=0;" parent="PaUmts2U89IXsogHB_Yg-3" vertex="1">
          <mxGeometry x="309.17771699309543" y="4.381666666666668" width="7.281597858249963" height="7.408333333333333" as="geometry" />
        </mxCell>
        <mxCell id="JdL9-djjlSlwG32NaNs0-180" value="" style="rounded=0;whiteSpace=wrap;html=1;strokeColor=#222222;fillColor=#000000;strokeWidth=0.5;movable=1;resizable=1;rotatable=1;deletable=1;editable=1;locked=0;connectable=1;container=0;" parent="PaUmts2U89IXsogHB_Yg-3" vertex="1">
          <mxGeometry x="309.17771699309543" y="12.530833333333348" width="7.281597858249963" height="7.408333333333333" as="geometry" />
        </mxCell>
        <mxCell id="JdL9-djjlSlwG32NaNs0-181" value="" style="rounded=0;whiteSpace=wrap;html=1;strokeColor=#222222;fillColor=#000000;strokeWidth=0.5;movable=1;resizable=1;rotatable=1;deletable=1;editable=1;locked=0;connectable=1;container=0;" parent="PaUmts2U89IXsogHB_Yg-3" vertex="1">
          <mxGeometry x="317.18747463717034" y="4.381666666666668" width="7.281597858249963" height="7.408333333333333" as="geometry" />
        </mxCell>
        <mxCell id="JdL9-djjlSlwG32NaNs0-182" value="" style="rounded=0;whiteSpace=wrap;html=1;strokeColor=#222222;fillColor=#000000;strokeWidth=0.5;movable=1;resizable=1;rotatable=1;deletable=1;editable=1;locked=0;connectable=1;container=0;" parent="PaUmts2U89IXsogHB_Yg-3" vertex="1">
          <mxGeometry x="317.18747463717034" y="12.530833333333348" width="7.281597858249963" height="7.408333333333333" as="geometry" />
        </mxCell>
        <mxCell id="JdL9-djjlSlwG32NaNs0-183" value="" style="rounded=0;whiteSpace=wrap;html=1;strokeColor=#222222;fillColor=#000000;strokeWidth=0.5;movable=1;resizable=1;rotatable=1;deletable=1;editable=1;locked=0;connectable=1;container=0;" parent="PaUmts2U89IXsogHB_Yg-3" vertex="1">
          <mxGeometry x="325.1972322812453" y="4.381666666666668" width="7.281597858249963" height="7.408333333333333" as="geometry" />
        </mxCell>
        <mxCell id="JdL9-djjlSlwG32NaNs0-184" value="" style="rounded=0;whiteSpace=wrap;html=1;strokeColor=#222222;fillColor=#000000;strokeWidth=0.5;movable=1;resizable=1;rotatable=1;deletable=1;editable=1;locked=0;connectable=1;container=0;" parent="PaUmts2U89IXsogHB_Yg-3" vertex="1">
          <mxGeometry x="325.1972322812453" y="12.530833333333348" width="7.281597858249963" height="7.408333333333333" as="geometry" />
        </mxCell>
        <mxCell id="JdL9-djjlSlwG32NaNs0-185" value="" style="rounded=0;whiteSpace=wrap;html=1;strokeColor=#222222;fillColor=#000000;strokeWidth=0.5;movable=1;resizable=1;rotatable=1;deletable=1;editable=1;locked=0;connectable=1;container=0;" parent="PaUmts2U89IXsogHB_Yg-3" vertex="1">
          <mxGeometry x="333.2069899253203" y="4.381666666666668" width="7.281597858249963" height="7.408333333333333" as="geometry" />
        </mxCell>
        <mxCell id="JdL9-djjlSlwG32NaNs0-186" value="" style="rounded=0;whiteSpace=wrap;html=1;strokeColor=#222222;fillColor=#000000;strokeWidth=0.5;movable=1;resizable=1;rotatable=1;deletable=1;editable=1;locked=0;connectable=1;container=0;" parent="PaUmts2U89IXsogHB_Yg-3" vertex="1">
          <mxGeometry x="333.2069899253203" y="12.530833333333348" width="7.281597858249963" height="7.408333333333333" as="geometry" />
        </mxCell>
        <mxCell id="JdL9-djjlSlwG32NaNs0-187" value="" style="rounded=0;whiteSpace=wrap;html=1;strokeColor=#222222;fillColor=#000000;strokeWidth=0.5;movable=1;resizable=1;rotatable=1;deletable=1;editable=1;locked=0;connectable=1;container=0;" parent="PaUmts2U89IXsogHB_Yg-3" vertex="1">
          <mxGeometry x="341.21674756939524" y="4.381666666666668" width="7.281597858249963" height="7.408333333333333" as="geometry" />
        </mxCell>
        <mxCell id="JdL9-djjlSlwG32NaNs0-188" value="" style="rounded=0;whiteSpace=wrap;html=1;strokeColor=#222222;fillColor=#000000;strokeWidth=0.5;movable=1;resizable=1;rotatable=1;deletable=1;editable=1;locked=0;connectable=1;container=0;" parent="PaUmts2U89IXsogHB_Yg-3" vertex="1">
          <mxGeometry x="341.21674756939524" y="12.530833333333348" width="7.281597858249963" height="7.408333333333333" as="geometry" />
        </mxCell>
        <mxCell id="JdL9-djjlSlwG32NaNs0-485" value="" style="rounded=0;whiteSpace=wrap;html=1;strokeColor=#222222;fillColor=#000000;strokeWidth=0.5;movable=1;resizable=1;rotatable=1;deletable=1;editable=1;locked=0;connectable=1;container=0;" parent="PaUmts2U89IXsogHB_Yg-3" vertex="1">
          <mxGeometry x="245.09965584049576" y="20.941666666666677" width="7.281597858249963" height="7.408333333333333" as="geometry" />
        </mxCell>
        <mxCell id="JdL9-djjlSlwG32NaNs0-486" value="" style="rounded=0;whiteSpace=wrap;html=1;strokeColor=#222222;fillColor=#000000;strokeWidth=0.5;movable=1;resizable=1;rotatable=1;deletable=1;editable=1;locked=0;connectable=1;container=0;" parent="PaUmts2U89IXsogHB_Yg-3" vertex="1">
          <mxGeometry x="253.10941348457072" y="20.941666666666677" width="7.281597858249963" height="7.408333333333333" as="geometry" />
        </mxCell>
        <mxCell id="JdL9-djjlSlwG32NaNs0-487" value="" style="rounded=0;whiteSpace=wrap;html=1;strokeColor=#222222;fillColor=#000000;strokeWidth=0.5;movable=1;resizable=1;rotatable=1;deletable=1;editable=1;locked=0;connectable=1;container=0;" parent="PaUmts2U89IXsogHB_Yg-3" vertex="1">
          <mxGeometry x="261.11917112864563" y="20.941666666666677" width="7.281597858249963" height="7.408333333333333" as="geometry" />
        </mxCell>
        <mxCell id="JdL9-djjlSlwG32NaNs0-488" value="" style="rounded=0;whiteSpace=wrap;html=1;strokeColor=#222222;fillColor=#000000;strokeWidth=0.5;movable=1;resizable=1;rotatable=1;deletable=1;editable=1;locked=0;connectable=1;container=0;" parent="PaUmts2U89IXsogHB_Yg-3" vertex="1">
          <mxGeometry x="269.1289287727206" y="20.941666666666677" width="7.281597858249963" height="7.408333333333333" as="geometry" />
        </mxCell>
        <mxCell id="JdL9-djjlSlwG32NaNs0-489" value="" style="rounded=0;whiteSpace=wrap;html=1;strokeColor=#222222;fillColor=#000000;strokeWidth=0.5;movable=1;resizable=1;rotatable=1;deletable=1;editable=1;locked=0;connectable=1;container=0;" parent="PaUmts2U89IXsogHB_Yg-3" vertex="1">
          <mxGeometry x="277.13868641679557" y="20.941666666666677" width="7.281597858249963" height="7.408333333333333" as="geometry" />
        </mxCell>
        <mxCell id="JdL9-djjlSlwG32NaNs0-490" value="" style="rounded=0;whiteSpace=wrap;html=1;strokeColor=#222222;fillColor=#000000;strokeWidth=0.5;movable=1;resizable=1;rotatable=1;deletable=1;editable=1;locked=0;connectable=1;container=0;" parent="PaUmts2U89IXsogHB_Yg-3" vertex="1">
          <mxGeometry x="285.14844406087053" y="20.941666666666677" width="7.281597858249963" height="7.408333333333333" as="geometry" />
        </mxCell>
        <mxCell id="JdL9-djjlSlwG32NaNs0-491" value="" style="rounded=0;whiteSpace=wrap;html=1;strokeColor=#222222;fillColor=#000000;strokeWidth=0.5;movable=1;resizable=1;rotatable=1;deletable=1;editable=1;locked=0;connectable=1;container=0;" parent="PaUmts2U89IXsogHB_Yg-3" vertex="1">
          <mxGeometry x="293.1582017049455" y="20.941666666666677" width="7.281597858249963" height="7.408333333333333" as="geometry" />
        </mxCell>
        <mxCell id="JdL9-djjlSlwG32NaNs0-492" value="" style="rounded=0;whiteSpace=wrap;html=1;strokeColor=#222222;fillColor=#000000;strokeWidth=0.5;movable=1;resizable=1;rotatable=1;deletable=1;editable=1;locked=0;connectable=1;container=0;" parent="PaUmts2U89IXsogHB_Yg-3" vertex="1">
          <mxGeometry x="301.16795934902046" y="20.941666666666677" width="7.281597858249963" height="7.408333333333333" as="geometry" />
        </mxCell>
        <mxCell id="JdL9-djjlSlwG32NaNs0-493" value="" style="rounded=0;whiteSpace=wrap;html=1;strokeColor=#222222;fillColor=#000000;strokeWidth=0.5;movable=1;resizable=1;rotatable=1;deletable=1;editable=1;locked=0;connectable=1;container=0;" parent="PaUmts2U89IXsogHB_Yg-3" vertex="1">
          <mxGeometry x="309.17771699309543" y="20.941666666666677" width="7.281597858249963" height="7.408333333333333" as="geometry" />
        </mxCell>
        <mxCell id="JdL9-djjlSlwG32NaNs0-494" value="" style="rounded=0;whiteSpace=wrap;html=1;strokeColor=#222222;fillColor=#000000;strokeWidth=0.5;movable=1;resizable=1;rotatable=1;deletable=1;editable=1;locked=0;connectable=1;container=0;" parent="PaUmts2U89IXsogHB_Yg-3" vertex="1">
          <mxGeometry x="317.18747463717034" y="20.941666666666677" width="7.281597858249963" height="7.408333333333333" as="geometry" />
        </mxCell>
        <mxCell id="JdL9-djjlSlwG32NaNs0-495" value="" style="rounded=0;whiteSpace=wrap;html=1;strokeColor=#222222;fillColor=#000000;strokeWidth=0.5;movable=1;resizable=1;rotatable=1;deletable=1;editable=1;locked=0;connectable=1;container=0;" parent="PaUmts2U89IXsogHB_Yg-3" vertex="1">
          <mxGeometry x="325.1972322812453" y="20.941666666666677" width="7.281597858249963" height="7.408333333333333" as="geometry" />
        </mxCell>
        <mxCell id="JdL9-djjlSlwG32NaNs0-496" value="" style="rounded=0;whiteSpace=wrap;html=1;strokeColor=#222222;fillColor=#000000;strokeWidth=0.5;movable=1;resizable=1;rotatable=1;deletable=1;editable=1;locked=0;connectable=1;container=0;" parent="PaUmts2U89IXsogHB_Yg-3" vertex="1">
          <mxGeometry x="333.2069899253203" y="20.941666666666677" width="7.281597858249963" height="7.408333333333333" as="geometry" />
        </mxCell>
        <mxCell id="JdL9-djjlSlwG32NaNs0-497" value="" style="rounded=0;whiteSpace=wrap;html=1;strokeColor=#222222;fillColor=#000000;strokeWidth=0.5;movable=1;resizable=1;rotatable=1;deletable=1;editable=1;locked=0;connectable=1;container=0;" parent="PaUmts2U89IXsogHB_Yg-3" vertex="1">
          <mxGeometry x="341.21674756939524" y="20.941666666666677" width="7.281597858249963" height="7.408333333333333" as="geometry" />
        </mxCell>
        <mxCell id="JdL9-djjlSlwG32NaNs0-498" value="" style="rounded=0;whiteSpace=wrap;html=1;strokeColor=#222222;fillColor=#000000;strokeWidth=0.5;movable=1;resizable=1;rotatable=1;deletable=1;editable=1;locked=0;connectable=1;container=0;" parent="PaUmts2U89IXsogHB_Yg-3" vertex="1">
          <mxGeometry x="356.10965584049575" y="20.961666666666673" width="7.281597858249963" height="7.408333333333333" as="geometry" />
        </mxCell>
        <mxCell id="JdL9-djjlSlwG32NaNs0-499" value="" style="rounded=0;whiteSpace=wrap;html=1;strokeColor=#222222;fillColor=#000000;strokeWidth=0.5;movable=1;resizable=1;rotatable=1;deletable=1;editable=1;locked=0;connectable=1;container=0;" parent="PaUmts2U89IXsogHB_Yg-3" vertex="1">
          <mxGeometry x="364.1194134845707" y="20.961666666666673" width="7.281597858249963" height="7.408333333333333" as="geometry" />
        </mxCell>
        <mxCell id="JdL9-djjlSlwG32NaNs0-500" value="" style="rounded=0;whiteSpace=wrap;html=1;strokeColor=#222222;fillColor=#000000;strokeWidth=0.5;movable=1;resizable=1;rotatable=1;deletable=1;editable=1;locked=0;connectable=1;container=0;" parent="PaUmts2U89IXsogHB_Yg-3" vertex="1">
          <mxGeometry x="372.1291711286456" y="20.961666666666673" width="7.281597858249963" height="7.408333333333333" as="geometry" />
        </mxCell>
        <mxCell id="JdL9-djjlSlwG32NaNs0-501" value="" style="rounded=0;whiteSpace=wrap;html=1;strokeColor=#222222;fillColor=#000000;strokeWidth=0.5;movable=1;resizable=1;rotatable=1;deletable=1;editable=1;locked=0;connectable=1;container=0;" parent="PaUmts2U89IXsogHB_Yg-3" vertex="1">
          <mxGeometry x="380.1389287727206" y="20.961666666666673" width="7.281597858249963" height="7.408333333333333" as="geometry" />
        </mxCell>
        <mxCell id="JdL9-djjlSlwG32NaNs0-502" value="" style="rounded=0;whiteSpace=wrap;html=1;strokeColor=#222222;fillColor=#000000;strokeWidth=0.5;movable=1;resizable=1;rotatable=1;deletable=1;editable=1;locked=0;connectable=1;container=0;" parent="PaUmts2U89IXsogHB_Yg-3" vertex="1">
          <mxGeometry x="388.14868641679556" y="20.961666666666673" width="7.281597858249963" height="7.408333333333333" as="geometry" />
        </mxCell>
        <mxCell id="JdL9-djjlSlwG32NaNs0-503" value="" style="rounded=0;whiteSpace=wrap;html=1;strokeColor=#222222;fillColor=#000000;strokeWidth=0.5;movable=1;resizable=1;rotatable=1;deletable=1;editable=1;locked=0;connectable=1;container=0;" parent="PaUmts2U89IXsogHB_Yg-3" vertex="1">
          <mxGeometry x="396.1584440608705" y="20.961666666666673" width="7.281597858249963" height="7.408333333333333" as="geometry" />
        </mxCell>
        <mxCell id="JdL9-djjlSlwG32NaNs0-504" value="" style="rounded=0;whiteSpace=wrap;html=1;strokeColor=#222222;fillColor=#000000;strokeWidth=0.5;movable=1;resizable=1;rotatable=1;deletable=1;editable=1;locked=0;connectable=1;container=0;" parent="PaUmts2U89IXsogHB_Yg-3" vertex="1">
          <mxGeometry x="404.1682017049455" y="20.961666666666673" width="7.281597858249963" height="7.408333333333333" as="geometry" />
        </mxCell>
        <mxCell id="JdL9-djjlSlwG32NaNs0-505" value="" style="rounded=0;whiteSpace=wrap;html=1;strokeColor=#222222;fillColor=#000000;strokeWidth=0.5;movable=1;resizable=1;rotatable=1;deletable=1;editable=1;locked=0;connectable=1;container=0;" parent="PaUmts2U89IXsogHB_Yg-3" vertex="1">
          <mxGeometry x="412.17795934902045" y="20.961666666666673" width="7.281597858249963" height="7.408333333333333" as="geometry" />
        </mxCell>
        <mxCell id="JdL9-djjlSlwG32NaNs0-506" value="" style="rounded=0;whiteSpace=wrap;html=1;strokeColor=#222222;fillColor=#000000;strokeWidth=0.5;movable=1;resizable=1;rotatable=1;deletable=1;editable=1;locked=0;connectable=1;container=0;" parent="PaUmts2U89IXsogHB_Yg-3" vertex="1">
          <mxGeometry x="420.1877169930954" y="20.961666666666673" width="7.281597858249963" height="7.408333333333333" as="geometry" />
        </mxCell>
        <mxCell id="JdL9-djjlSlwG32NaNs0-507" value="" style="rounded=0;whiteSpace=wrap;html=1;strokeColor=#222222;fillColor=#000000;strokeWidth=0.5;movable=1;resizable=1;rotatable=1;deletable=1;editable=1;locked=0;connectable=1;container=0;" parent="PaUmts2U89IXsogHB_Yg-3" vertex="1">
          <mxGeometry x="428.19747463717033" y="20.961666666666673" width="7.281597858249963" height="7.408333333333333" as="geometry" />
        </mxCell>
        <mxCell id="JdL9-djjlSlwG32NaNs0-508" value="" style="rounded=0;whiteSpace=wrap;html=1;strokeColor=#222222;fillColor=#000000;strokeWidth=0.5;movable=1;resizable=1;rotatable=1;deletable=1;editable=1;locked=0;connectable=1;container=0;" parent="PaUmts2U89IXsogHB_Yg-3" vertex="1">
          <mxGeometry x="436.2072322812453" y="20.961666666666673" width="7.281597858249963" height="7.408333333333333" as="geometry" />
        </mxCell>
        <mxCell id="JdL9-djjlSlwG32NaNs0-509" value="" style="rounded=0;whiteSpace=wrap;html=1;strokeColor=#222222;fillColor=#000000;strokeWidth=0.5;movable=1;resizable=1;rotatable=1;deletable=1;editable=1;locked=0;connectable=1;container=0;" parent="PaUmts2U89IXsogHB_Yg-3" vertex="1">
          <mxGeometry x="444.21698992532026" y="20.961666666666673" width="7.281597858249963" height="7.408333333333333" as="geometry" />
        </mxCell>
        <mxCell id="JdL9-djjlSlwG32NaNs0-510" value="" style="rounded=0;whiteSpace=wrap;html=1;strokeColor=#222222;fillColor=#000000;strokeWidth=0.5;movable=1;resizable=1;rotatable=1;deletable=1;editable=1;locked=0;connectable=1;container=0;" parent="PaUmts2U89IXsogHB_Yg-3" vertex="1">
          <mxGeometry x="452.22674756939523" y="20.961666666666673" width="7.281597858249963" height="7.408333333333333" as="geometry" />
        </mxCell>
        <mxCell id="I7_khpXOxJ3i9qSqHDg5-1" value="" style="group" parent="PaUmts2U89IXsogHB_Yg-3" vertex="1" connectable="0">
          <mxGeometry x="19.83" y="61.8" width="442.95212765957444" height="26.179245283018872" as="geometry" />
        </mxCell>
        <mxCell id="I7_khpXOxJ3i9qSqHDg5-2" value="" style="group" parent="I7_khpXOxJ3i9qSqHDg5-1" vertex="1" connectable="0">
          <mxGeometry x="333" width="109.95212765957444" height="26.179245283018872" as="geometry" />
        </mxCell>
        <mxCell id="I7_khpXOxJ3i9qSqHDg5-3" value="" style="rounded=0;whiteSpace=wrap;html=1;strokeColor=none;fillColor=#222222;strokeWidth=0.5;movable=1;resizable=1;rotatable=1;deletable=1;editable=1;locked=0;connectable=1;container=0;" parent="I7_khpXOxJ3i9qSqHDg5-2" vertex="1">
          <mxGeometry width="109.95212765957447" height="26.179245283018872" as="geometry" />
        </mxCell>
        <mxCell id="I7_khpXOxJ3i9qSqHDg5-4" value="" style="rounded=0;whiteSpace=wrap;html=1;strokeColor=#111111;fillColor=#000000;strokeWidth=0.5;movable=1;resizable=1;rotatable=1;deletable=1;editable=1;locked=0;connectable=1;container=0;align=center;verticalAlign=middle;fontFamily=Helvetica;fontSize=12;fontColor=default;" parent="I7_khpXOxJ3i9qSqHDg5-2" vertex="1">
          <mxGeometry x="3.1414893617020994" y="3.1415094339622627" width="101.57482269503546" height="19.89622641509434" as="geometry" />
        </mxCell>
        <mxCell id="I7_khpXOxJ3i9qSqHDg5-5" value="" style="rounded=1;whiteSpace=wrap;html=1;strokeColor=#222222;rotation=0;fillColor=#60a917;fontColor=#ffffff;movable=1;resizable=1;rotatable=1;deletable=1;editable=1;locked=0;connectable=1;container=0;direction=south;strokeWidth=0.1;" parent="I7_khpXOxJ3i9qSqHDg5-2" vertex="1">
          <mxGeometry x="105.763475177305" y="20.943396226415096" width="3.141489361702128" height="4.188679245283019" as="geometry" />
        </mxCell>
        <mxCell id="I7_khpXOxJ3i9qSqHDg5-6" value="" style="rounded=1;whiteSpace=wrap;html=1;strokeColor=#222222;rotation=0;fillColor=#0050ef;fontColor=#ffffff;movable=1;resizable=1;rotatable=1;deletable=1;editable=1;locked=0;connectable=1;container=0;direction=south;strokeWidth=0.1;" parent="I7_khpXOxJ3i9qSqHDg5-2" vertex="1">
          <mxGeometry x="105.763475177305" y="11.518867924528301" width="3.141489361702128" height="4.188679245283019" as="geometry" />
        </mxCell>
        <mxCell id="I7_khpXOxJ3i9qSqHDg5-7" value="" style="rounded=1;whiteSpace=wrap;html=1;strokeColor=none;fillColor=#0050ef;strokeWidth=0.5;fontColor=#ffffff;glass=0;movable=1;resizable=1;rotatable=1;deletable=1;editable=1;locked=0;connectable=1;container=0;" parent="I7_khpXOxJ3i9qSqHDg5-2" vertex="1">
          <mxGeometry x="78.53723404255317" y="6.283018867924529" width="8.377304964539007" height="13.613207547169813" as="geometry" />
        </mxCell>
        <mxCell id="I7_khpXOxJ3i9qSqHDg5-8" value="" style="shape=or;whiteSpace=wrap;html=1;fillColor=#0050ef;fontColor=#ffffff;strokeColor=none;movable=1;resizable=1;rotatable=1;deletable=1;editable=1;locked=0;connectable=1;container=0;" parent="I7_khpXOxJ3i9qSqHDg5-2" vertex="1">
          <mxGeometry x="85.86737588652483" y="6.283018867924529" width="3.141489361702128" height="13.613207547169813" as="geometry" />
        </mxCell>
        <mxCell id="I7_khpXOxJ3i9qSqHDg5-9" value="" style="sketch=0;html=1;strokeColor=#111111;shadow=0;fillColor=none;verticalAlign=top;labelPosition=center;verticalLabelPosition=bottom;shape=mxgraph.gcp2.a7_power;gradientColor=none;strokeWidth=0.2;movable=1;resizable=1;rotatable=1;deletable=1;editable=1;locked=0;connectable=1;container=0;" parent="I7_khpXOxJ3i9qSqHDg5-2" vertex="1">
          <mxGeometry x="105.763475177305" y="7.330188679245282" width="3.141489361702128" height="3.1415094339622645" as="geometry" />
        </mxCell>
        <mxCell id="I7_khpXOxJ3i9qSqHDg5-10" value="" style="strokeWidth=0.2;html=1;shape=mxgraph.flowchart.database;whiteSpace=wrap;strokeColor=#111111;fillColor=none;movable=1;resizable=1;rotatable=1;deletable=1;editable=1;locked=0;connectable=1;container=0;" parent="I7_khpXOxJ3i9qSqHDg5-2" vertex="1">
          <mxGeometry x="105.763475177305" y="16.754716981132077" width="3.141489361702128" height="3.1415094339622645" as="geometry" />
        </mxCell>
        <mxCell id="I7_khpXOxJ3i9qSqHDg5-11" value="" style="rounded=0;whiteSpace=wrap;html=1;strokeColor=none;fillColor=#222222;strokeWidth=0.5;movable=1;resizable=1;rotatable=1;deletable=1;editable=1;locked=0;connectable=1;container=0;" parent="I7_khpXOxJ3i9qSqHDg5-2" vertex="1">
          <mxGeometry x="3.1414893617020994" y="3.1415094339622627" width="80.63156028368795" height="19.89622641509434" as="geometry" />
        </mxCell>
        <mxCell id="I7_khpXOxJ3i9qSqHDg5-12" value="" style="rounded=0;whiteSpace=wrap;html=1;strokeColor=none;fillColor=#000000;strokeWidth=0.5;movable=1;resizable=1;rotatable=1;deletable=1;editable=1;locked=0;connectable=1;container=0;align=center;verticalAlign=middle;fontFamily=Helvetica;fontSize=12;fontColor=default;" parent="I7_khpXOxJ3i9qSqHDg5-2" vertex="1">
          <mxGeometry x="13.613120567375915" y="5.759433962264151" width="55.499645390070924" height="2.0943396226415096" as="geometry" />
        </mxCell>
        <mxCell id="I7_khpXOxJ3i9qSqHDg5-13" value="" style="rounded=0;whiteSpace=wrap;html=1;strokeColor=none;fillColor=#000000;strokeWidth=0.5;movable=1;resizable=1;rotatable=1;deletable=1;editable=1;locked=0;connectable=1;container=0;align=center;verticalAlign=middle;fontFamily=Helvetica;fontSize=12;fontColor=default;" parent="I7_khpXOxJ3i9qSqHDg5-2" vertex="1">
          <mxGeometry x="13.613120567375915" y="9.94811320754717" width="55.499645390070924" height="2.0943396226415096" as="geometry" />
        </mxCell>
        <mxCell id="I7_khpXOxJ3i9qSqHDg5-14" value="" style="rounded=0;whiteSpace=wrap;html=1;strokeColor=none;fillColor=#000000;strokeWidth=0.5;movable=1;resizable=1;rotatable=1;deletable=1;editable=1;locked=0;connectable=1;container=0;align=center;verticalAlign=middle;fontFamily=Helvetica;fontSize=12;fontColor=default;" parent="I7_khpXOxJ3i9qSqHDg5-2" vertex="1">
          <mxGeometry x="13.613120567375915" y="14.136792452830193" width="55.499645390070924" height="2.0943396226415096" as="geometry" />
        </mxCell>
        <mxCell id="I7_khpXOxJ3i9qSqHDg5-15" value="" style="rounded=0;whiteSpace=wrap;html=1;strokeColor=none;fillColor=#000000;strokeWidth=0.5;movable=1;resizable=1;rotatable=1;deletable=1;editable=1;locked=0;connectable=1;container=0;align=center;verticalAlign=middle;fontFamily=Helvetica;fontSize=12;fontColor=default;" parent="I7_khpXOxJ3i9qSqHDg5-2" vertex="1">
          <mxGeometry x="13.613120567375915" y="18.325471698113205" width="55.499645390070924" height="2.0943396226415096" as="geometry" />
        </mxCell>
        <mxCell id="I7_khpXOxJ3i9qSqHDg5-16" value="" style="rounded=0;whiteSpace=wrap;html=1;strokeColor=none;fillColor=#111111;strokeWidth=0.2;movable=1;resizable=1;rotatable=1;deletable=1;editable=1;locked=0;connectable=1;container=0;" parent="I7_khpXOxJ3i9qSqHDg5-2" vertex="1">
          <mxGeometry x="30.36773049645393" y="5.759433962264151" width="2.094326241134752" height="14.660377358490567" as="geometry" />
        </mxCell>
        <mxCell id="I7_khpXOxJ3i9qSqHDg5-17" value="" style="rounded=0;whiteSpace=wrap;html=1;strokeColor=none;fillColor=#111111;strokeWidth=0.2;movable=1;resizable=1;rotatable=1;deletable=1;editable=1;locked=0;connectable=1;container=0;" parent="I7_khpXOxJ3i9qSqHDg5-2" vertex="1">
          <mxGeometry x="50.263829787234044" y="5.759433962264151" width="2.094326241134752" height="14.660377358490567" as="geometry" />
        </mxCell>
        <mxCell id="I7_khpXOxJ3i9qSqHDg5-18" value="" style="rounded=0;whiteSpace=wrap;html=1;strokeColor=none;fillColor=#222222;strokeWidth=0.5;movable=1;resizable=1;rotatable=1;deletable=1;editable=1;locked=0;connectable=1;container=0;" parent="I7_khpXOxJ3i9qSqHDg5-2" vertex="1">
          <mxGeometry x="13.613120567375915" y="16.2311320754717" width="55.499645390070924" height="2.0943396226415096" as="geometry" />
        </mxCell>
        <mxCell id="I7_khpXOxJ3i9qSqHDg5-19" value="" style="rounded=0;whiteSpace=wrap;html=1;strokeColor=none;fillColor=#222222;strokeWidth=0.5;movable=1;resizable=1;rotatable=1;deletable=1;editable=1;locked=0;connectable=1;container=0;" parent="I7_khpXOxJ3i9qSqHDg5-2" vertex="1">
          <mxGeometry x="13.613120567375915" y="12.04245283018868" width="55.499645390070924" height="2.0943396226415096" as="geometry" />
        </mxCell>
        <mxCell id="I7_khpXOxJ3i9qSqHDg5-20" value="" style="rounded=0;whiteSpace=wrap;html=1;strokeColor=none;fillColor=#222222;strokeWidth=0.5;movable=1;resizable=1;rotatable=1;deletable=1;editable=1;locked=0;connectable=1;container=0;" parent="I7_khpXOxJ3i9qSqHDg5-2" vertex="1">
          <mxGeometry x="13.613120567375915" y="7.85377358490566" width="55.499645390070924" height="2.0943396226415096" as="geometry" />
        </mxCell>
        <mxCell id="I7_khpXOxJ3i9qSqHDg5-21" value="" style="rounded=0;whiteSpace=wrap;html=1;strokeColor=none;fillColor=#111111;strokeWidth=0.2;movable=1;resizable=1;rotatable=1;deletable=1;editable=1;locked=0;connectable=1;container=0;" parent="I7_khpXOxJ3i9qSqHDg5-2" vertex="1">
          <mxGeometry x="9.424468085106412" y="5.759433962264151" width="4.188652482269504" height="14.660377358490567" as="geometry" />
        </mxCell>
        <mxCell id="I7_khpXOxJ3i9qSqHDg5-22" value="" style="rounded=0;whiteSpace=wrap;html=1;strokeColor=none;fillColor=#111111;strokeWidth=0.2;movable=1;resizable=1;rotatable=1;deletable=1;editable=1;locked=0;connectable=1;container=0;" parent="I7_khpXOxJ3i9qSqHDg5-2" vertex="1">
          <mxGeometry x="69.11276595744681" y="5.759433962264151" width="4.188652482269504" height="14.660377358490567" as="geometry" />
        </mxCell>
        <mxCell id="I7_khpXOxJ3i9qSqHDg5-23" value="" style="group" parent="I7_khpXOxJ3i9qSqHDg5-1" vertex="1" connectable="0">
          <mxGeometry x="222" width="109.95212765957444" height="26.179245283018872" as="geometry" />
        </mxCell>
        <mxCell id="I7_khpXOxJ3i9qSqHDg5-24" value="" style="rounded=0;whiteSpace=wrap;html=1;strokeColor=none;fillColor=#222222;strokeWidth=0.5;movable=1;resizable=1;rotatable=1;deletable=1;editable=1;locked=0;connectable=1;container=0;" parent="I7_khpXOxJ3i9qSqHDg5-23" vertex="1">
          <mxGeometry width="109.95212765957447" height="26.179245283018872" as="geometry" />
        </mxCell>
        <mxCell id="I7_khpXOxJ3i9qSqHDg5-25" value="" style="rounded=0;whiteSpace=wrap;html=1;strokeColor=#111111;fillColor=#000000;strokeWidth=0.5;movable=1;resizable=1;rotatable=1;deletable=1;editable=1;locked=0;connectable=1;container=0;align=center;verticalAlign=middle;fontFamily=Helvetica;fontSize=12;fontColor=default;" parent="I7_khpXOxJ3i9qSqHDg5-23" vertex="1">
          <mxGeometry x="3.1414893617020994" y="3.1415094339622627" width="101.57482269503546" height="19.89622641509434" as="geometry" />
        </mxCell>
        <mxCell id="I7_khpXOxJ3i9qSqHDg5-26" value="" style="rounded=1;whiteSpace=wrap;html=1;strokeColor=#222222;rotation=0;fillColor=#60a917;fontColor=#ffffff;movable=1;resizable=1;rotatable=1;deletable=1;editable=1;locked=0;connectable=1;container=0;direction=south;strokeWidth=0.1;" parent="I7_khpXOxJ3i9qSqHDg5-23" vertex="1">
          <mxGeometry x="105.763475177305" y="20.943396226415096" width="3.141489361702128" height="4.188679245283019" as="geometry" />
        </mxCell>
        <mxCell id="I7_khpXOxJ3i9qSqHDg5-27" value="" style="rounded=1;whiteSpace=wrap;html=1;strokeColor=#222222;rotation=0;fillColor=#0050ef;fontColor=#ffffff;movable=1;resizable=1;rotatable=1;deletable=1;editable=1;locked=0;connectable=1;container=0;direction=south;strokeWidth=0.1;" parent="I7_khpXOxJ3i9qSqHDg5-23" vertex="1">
          <mxGeometry x="105.763475177305" y="11.518867924528301" width="3.141489361702128" height="4.188679245283019" as="geometry" />
        </mxCell>
        <mxCell id="I7_khpXOxJ3i9qSqHDg5-28" value="" style="rounded=1;whiteSpace=wrap;html=1;strokeColor=none;fillColor=#0050ef;strokeWidth=0.5;fontColor=#ffffff;glass=0;movable=1;resizable=1;rotatable=1;deletable=1;editable=1;locked=0;connectable=1;container=0;" parent="I7_khpXOxJ3i9qSqHDg5-23" vertex="1">
          <mxGeometry x="78.53723404255317" y="6.283018867924529" width="8.377304964539007" height="13.613207547169813" as="geometry" />
        </mxCell>
        <mxCell id="I7_khpXOxJ3i9qSqHDg5-29" value="" style="shape=or;whiteSpace=wrap;html=1;fillColor=#0050ef;fontColor=#ffffff;strokeColor=none;movable=1;resizable=1;rotatable=1;deletable=1;editable=1;locked=0;connectable=1;container=0;" parent="I7_khpXOxJ3i9qSqHDg5-23" vertex="1">
          <mxGeometry x="85.86737588652483" y="6.283018867924529" width="3.141489361702128" height="13.613207547169813" as="geometry" />
        </mxCell>
        <mxCell id="I7_khpXOxJ3i9qSqHDg5-30" value="" style="sketch=0;html=1;strokeColor=#111111;shadow=0;fillColor=none;verticalAlign=top;labelPosition=center;verticalLabelPosition=bottom;shape=mxgraph.gcp2.a7_power;gradientColor=none;strokeWidth=0.2;movable=1;resizable=1;rotatable=1;deletable=1;editable=1;locked=0;connectable=1;container=0;" parent="I7_khpXOxJ3i9qSqHDg5-23" vertex="1">
          <mxGeometry x="105.763475177305" y="7.330188679245282" width="3.141489361702128" height="3.1415094339622645" as="geometry" />
        </mxCell>
        <mxCell id="I7_khpXOxJ3i9qSqHDg5-31" value="" style="strokeWidth=0.2;html=1;shape=mxgraph.flowchart.database;whiteSpace=wrap;strokeColor=#111111;fillColor=none;movable=1;resizable=1;rotatable=1;deletable=1;editable=1;locked=0;connectable=1;container=0;" parent="I7_khpXOxJ3i9qSqHDg5-23" vertex="1">
          <mxGeometry x="105.763475177305" y="16.754716981132077" width="3.141489361702128" height="3.1415094339622645" as="geometry" />
        </mxCell>
        <mxCell id="I7_khpXOxJ3i9qSqHDg5-32" value="" style="rounded=0;whiteSpace=wrap;html=1;strokeColor=none;fillColor=#222222;strokeWidth=0.5;movable=1;resizable=1;rotatable=1;deletable=1;editable=1;locked=0;connectable=1;container=0;" parent="I7_khpXOxJ3i9qSqHDg5-23" vertex="1">
          <mxGeometry x="3.1414893617020994" y="3.1415094339622627" width="80.63156028368795" height="19.89622641509434" as="geometry" />
        </mxCell>
        <mxCell id="I7_khpXOxJ3i9qSqHDg5-33" value="" style="rounded=0;whiteSpace=wrap;html=1;strokeColor=none;fillColor=#000000;strokeWidth=0.5;movable=1;resizable=1;rotatable=1;deletable=1;editable=1;locked=0;connectable=1;container=0;align=center;verticalAlign=middle;fontFamily=Helvetica;fontSize=12;fontColor=default;" parent="I7_khpXOxJ3i9qSqHDg5-23" vertex="1">
          <mxGeometry x="13.613120567375915" y="5.759433962264151" width="55.499645390070924" height="2.0943396226415096" as="geometry" />
        </mxCell>
        <mxCell id="I7_khpXOxJ3i9qSqHDg5-34" value="" style="rounded=0;whiteSpace=wrap;html=1;strokeColor=none;fillColor=#000000;strokeWidth=0.5;movable=1;resizable=1;rotatable=1;deletable=1;editable=1;locked=0;connectable=1;container=0;align=center;verticalAlign=middle;fontFamily=Helvetica;fontSize=12;fontColor=default;" parent="I7_khpXOxJ3i9qSqHDg5-23" vertex="1">
          <mxGeometry x="13.613120567375915" y="9.94811320754717" width="55.499645390070924" height="2.0943396226415096" as="geometry" />
        </mxCell>
        <mxCell id="I7_khpXOxJ3i9qSqHDg5-35" value="" style="rounded=0;whiteSpace=wrap;html=1;strokeColor=none;fillColor=#000000;strokeWidth=0.5;movable=1;resizable=1;rotatable=1;deletable=1;editable=1;locked=0;connectable=1;container=0;align=center;verticalAlign=middle;fontFamily=Helvetica;fontSize=12;fontColor=default;" parent="I7_khpXOxJ3i9qSqHDg5-23" vertex="1">
          <mxGeometry x="13.613120567375915" y="14.136792452830193" width="55.499645390070924" height="2.0943396226415096" as="geometry" />
        </mxCell>
        <mxCell id="I7_khpXOxJ3i9qSqHDg5-36" value="" style="rounded=0;whiteSpace=wrap;html=1;strokeColor=none;fillColor=#000000;strokeWidth=0.5;movable=1;resizable=1;rotatable=1;deletable=1;editable=1;locked=0;connectable=1;container=0;align=center;verticalAlign=middle;fontFamily=Helvetica;fontSize=12;fontColor=default;" parent="I7_khpXOxJ3i9qSqHDg5-23" vertex="1">
          <mxGeometry x="13.613120567375915" y="18.325471698113205" width="55.499645390070924" height="2.0943396226415096" as="geometry" />
        </mxCell>
        <mxCell id="I7_khpXOxJ3i9qSqHDg5-37" value="" style="rounded=0;whiteSpace=wrap;html=1;strokeColor=none;fillColor=#111111;strokeWidth=0.2;movable=1;resizable=1;rotatable=1;deletable=1;editable=1;locked=0;connectable=1;container=0;" parent="I7_khpXOxJ3i9qSqHDg5-23" vertex="1">
          <mxGeometry x="30.36773049645393" y="5.759433962264151" width="2.094326241134752" height="14.660377358490567" as="geometry" />
        </mxCell>
        <mxCell id="I7_khpXOxJ3i9qSqHDg5-38" value="" style="rounded=0;whiteSpace=wrap;html=1;strokeColor=none;fillColor=#111111;strokeWidth=0.2;movable=1;resizable=1;rotatable=1;deletable=1;editable=1;locked=0;connectable=1;container=0;" parent="I7_khpXOxJ3i9qSqHDg5-23" vertex="1">
          <mxGeometry x="50.263829787234044" y="5.759433962264151" width="2.094326241134752" height="14.660377358490567" as="geometry" />
        </mxCell>
        <mxCell id="I7_khpXOxJ3i9qSqHDg5-39" value="" style="rounded=0;whiteSpace=wrap;html=1;strokeColor=none;fillColor=#222222;strokeWidth=0.5;movable=1;resizable=1;rotatable=1;deletable=1;editable=1;locked=0;connectable=1;container=0;" parent="I7_khpXOxJ3i9qSqHDg5-23" vertex="1">
          <mxGeometry x="13.613120567375915" y="16.2311320754717" width="55.499645390070924" height="2.0943396226415096" as="geometry" />
        </mxCell>
        <mxCell id="I7_khpXOxJ3i9qSqHDg5-40" value="" style="rounded=0;whiteSpace=wrap;html=1;strokeColor=none;fillColor=#222222;strokeWidth=0.5;movable=1;resizable=1;rotatable=1;deletable=1;editable=1;locked=0;connectable=1;container=0;" parent="I7_khpXOxJ3i9qSqHDg5-23" vertex="1">
          <mxGeometry x="13.613120567375915" y="12.04245283018868" width="55.499645390070924" height="2.0943396226415096" as="geometry" />
        </mxCell>
        <mxCell id="I7_khpXOxJ3i9qSqHDg5-41" value="" style="rounded=0;whiteSpace=wrap;html=1;strokeColor=none;fillColor=#222222;strokeWidth=0.5;movable=1;resizable=1;rotatable=1;deletable=1;editable=1;locked=0;connectable=1;container=0;" parent="I7_khpXOxJ3i9qSqHDg5-23" vertex="1">
          <mxGeometry x="13.613120567375915" y="7.85377358490566" width="55.499645390070924" height="2.0943396226415096" as="geometry" />
        </mxCell>
        <mxCell id="I7_khpXOxJ3i9qSqHDg5-42" value="" style="rounded=0;whiteSpace=wrap;html=1;strokeColor=none;fillColor=#111111;strokeWidth=0.2;movable=1;resizable=1;rotatable=1;deletable=1;editable=1;locked=0;connectable=1;container=0;" parent="I7_khpXOxJ3i9qSqHDg5-23" vertex="1">
          <mxGeometry x="9.424468085106412" y="5.759433962264151" width="4.188652482269504" height="14.660377358490567" as="geometry" />
        </mxCell>
        <mxCell id="I7_khpXOxJ3i9qSqHDg5-43" value="" style="rounded=0;whiteSpace=wrap;html=1;strokeColor=none;fillColor=#111111;strokeWidth=0.2;movable=1;resizable=1;rotatable=1;deletable=1;editable=1;locked=0;connectable=1;container=0;" parent="I7_khpXOxJ3i9qSqHDg5-23" vertex="1">
          <mxGeometry x="69.11276595744681" y="5.759433962264151" width="4.188652482269504" height="14.660377358490567" as="geometry" />
        </mxCell>
        <mxCell id="I7_khpXOxJ3i9qSqHDg5-44" value="" style="group" parent="I7_khpXOxJ3i9qSqHDg5-1" vertex="1" connectable="0">
          <mxGeometry x="111" width="109.95212765957444" height="26.179245283018872" as="geometry" />
        </mxCell>
        <mxCell id="I7_khpXOxJ3i9qSqHDg5-45" value="" style="rounded=0;whiteSpace=wrap;html=1;strokeColor=none;fillColor=#222222;strokeWidth=0.5;movable=1;resizable=1;rotatable=1;deletable=1;editable=1;locked=0;connectable=1;container=0;" parent="I7_khpXOxJ3i9qSqHDg5-44" vertex="1">
          <mxGeometry width="109.95212765957447" height="26.179245283018872" as="geometry" />
        </mxCell>
        <mxCell id="I7_khpXOxJ3i9qSqHDg5-46" value="" style="rounded=0;whiteSpace=wrap;html=1;strokeColor=#111111;fillColor=#000000;strokeWidth=0.5;movable=1;resizable=1;rotatable=1;deletable=1;editable=1;locked=0;connectable=1;container=0;align=center;verticalAlign=middle;fontFamily=Helvetica;fontSize=12;fontColor=default;" parent="I7_khpXOxJ3i9qSqHDg5-44" vertex="1">
          <mxGeometry x="3.1414893617020994" y="3.1415094339622627" width="101.57482269503546" height="19.89622641509434" as="geometry" />
        </mxCell>
        <mxCell id="I7_khpXOxJ3i9qSqHDg5-47" value="" style="rounded=1;whiteSpace=wrap;html=1;strokeColor=#222222;rotation=0;fillColor=#60a917;fontColor=#ffffff;movable=1;resizable=1;rotatable=1;deletable=1;editable=1;locked=0;connectable=1;container=0;direction=south;strokeWidth=0.1;" parent="I7_khpXOxJ3i9qSqHDg5-44" vertex="1">
          <mxGeometry x="105.763475177305" y="20.943396226415096" width="3.141489361702128" height="4.188679245283019" as="geometry" />
        </mxCell>
        <mxCell id="I7_khpXOxJ3i9qSqHDg5-48" value="" style="rounded=1;whiteSpace=wrap;html=1;strokeColor=#222222;rotation=0;fillColor=#0050ef;fontColor=#ffffff;movable=1;resizable=1;rotatable=1;deletable=1;editable=1;locked=0;connectable=1;container=0;direction=south;strokeWidth=0.1;" parent="I7_khpXOxJ3i9qSqHDg5-44" vertex="1">
          <mxGeometry x="105.763475177305" y="11.518867924528301" width="3.141489361702128" height="4.188679245283019" as="geometry" />
        </mxCell>
        <mxCell id="I7_khpXOxJ3i9qSqHDg5-49" value="" style="rounded=1;whiteSpace=wrap;html=1;strokeColor=none;fillColor=#0050ef;strokeWidth=0.5;fontColor=#ffffff;glass=0;movable=1;resizable=1;rotatable=1;deletable=1;editable=1;locked=0;connectable=1;container=0;" parent="I7_khpXOxJ3i9qSqHDg5-44" vertex="1">
          <mxGeometry x="78.53723404255317" y="6.283018867924529" width="8.377304964539007" height="13.613207547169813" as="geometry" />
        </mxCell>
        <mxCell id="I7_khpXOxJ3i9qSqHDg5-50" value="" style="shape=or;whiteSpace=wrap;html=1;fillColor=#0050ef;fontColor=#ffffff;strokeColor=none;movable=1;resizable=1;rotatable=1;deletable=1;editable=1;locked=0;connectable=1;container=0;" parent="I7_khpXOxJ3i9qSqHDg5-44" vertex="1">
          <mxGeometry x="85.86737588652483" y="6.283018867924529" width="3.141489361702128" height="13.613207547169813" as="geometry" />
        </mxCell>
        <mxCell id="I7_khpXOxJ3i9qSqHDg5-51" value="" style="sketch=0;html=1;strokeColor=#111111;shadow=0;fillColor=none;verticalAlign=top;labelPosition=center;verticalLabelPosition=bottom;shape=mxgraph.gcp2.a7_power;gradientColor=none;strokeWidth=0.2;movable=1;resizable=1;rotatable=1;deletable=1;editable=1;locked=0;connectable=1;container=0;" parent="I7_khpXOxJ3i9qSqHDg5-44" vertex="1">
          <mxGeometry x="105.763475177305" y="7.330188679245282" width="3.141489361702128" height="3.1415094339622645" as="geometry" />
        </mxCell>
        <mxCell id="I7_khpXOxJ3i9qSqHDg5-52" value="" style="strokeWidth=0.2;html=1;shape=mxgraph.flowchart.database;whiteSpace=wrap;strokeColor=#111111;fillColor=none;movable=1;resizable=1;rotatable=1;deletable=1;editable=1;locked=0;connectable=1;container=0;" parent="I7_khpXOxJ3i9qSqHDg5-44" vertex="1">
          <mxGeometry x="105.763475177305" y="16.754716981132077" width="3.141489361702128" height="3.1415094339622645" as="geometry" />
        </mxCell>
        <mxCell id="I7_khpXOxJ3i9qSqHDg5-53" value="" style="rounded=0;whiteSpace=wrap;html=1;strokeColor=none;fillColor=#222222;strokeWidth=0.5;movable=1;resizable=1;rotatable=1;deletable=1;editable=1;locked=0;connectable=1;container=0;" parent="I7_khpXOxJ3i9qSqHDg5-44" vertex="1">
          <mxGeometry x="3.1414893617020994" y="3.1415094339622627" width="80.63156028368795" height="19.89622641509434" as="geometry" />
        </mxCell>
        <mxCell id="I7_khpXOxJ3i9qSqHDg5-54" value="" style="rounded=0;whiteSpace=wrap;html=1;strokeColor=none;fillColor=#000000;strokeWidth=0.5;movable=1;resizable=1;rotatable=1;deletable=1;editable=1;locked=0;connectable=1;container=0;align=center;verticalAlign=middle;fontFamily=Helvetica;fontSize=12;fontColor=default;" parent="I7_khpXOxJ3i9qSqHDg5-44" vertex="1">
          <mxGeometry x="13.613120567375915" y="5.759433962264151" width="55.499645390070924" height="2.0943396226415096" as="geometry" />
        </mxCell>
        <mxCell id="I7_khpXOxJ3i9qSqHDg5-55" value="" style="rounded=0;whiteSpace=wrap;html=1;strokeColor=none;fillColor=#000000;strokeWidth=0.5;movable=1;resizable=1;rotatable=1;deletable=1;editable=1;locked=0;connectable=1;container=0;align=center;verticalAlign=middle;fontFamily=Helvetica;fontSize=12;fontColor=default;" parent="I7_khpXOxJ3i9qSqHDg5-44" vertex="1">
          <mxGeometry x="13.613120567375915" y="9.94811320754717" width="55.499645390070924" height="2.0943396226415096" as="geometry" />
        </mxCell>
        <mxCell id="I7_khpXOxJ3i9qSqHDg5-56" value="" style="rounded=0;whiteSpace=wrap;html=1;strokeColor=none;fillColor=#000000;strokeWidth=0.5;movable=1;resizable=1;rotatable=1;deletable=1;editable=1;locked=0;connectable=1;container=0;align=center;verticalAlign=middle;fontFamily=Helvetica;fontSize=12;fontColor=default;" parent="I7_khpXOxJ3i9qSqHDg5-44" vertex="1">
          <mxGeometry x="13.613120567375915" y="14.136792452830193" width="55.499645390070924" height="2.0943396226415096" as="geometry" />
        </mxCell>
        <mxCell id="I7_khpXOxJ3i9qSqHDg5-57" value="" style="rounded=0;whiteSpace=wrap;html=1;strokeColor=none;fillColor=#000000;strokeWidth=0.5;movable=1;resizable=1;rotatable=1;deletable=1;editable=1;locked=0;connectable=1;container=0;align=center;verticalAlign=middle;fontFamily=Helvetica;fontSize=12;fontColor=default;" parent="I7_khpXOxJ3i9qSqHDg5-44" vertex="1">
          <mxGeometry x="13.613120567375915" y="18.325471698113205" width="55.499645390070924" height="2.0943396226415096" as="geometry" />
        </mxCell>
        <mxCell id="I7_khpXOxJ3i9qSqHDg5-58" value="" style="rounded=0;whiteSpace=wrap;html=1;strokeColor=none;fillColor=#111111;strokeWidth=0.2;movable=1;resizable=1;rotatable=1;deletable=1;editable=1;locked=0;connectable=1;container=0;" parent="I7_khpXOxJ3i9qSqHDg5-44" vertex="1">
          <mxGeometry x="30.36773049645393" y="5.759433962264151" width="2.094326241134752" height="14.660377358490567" as="geometry" />
        </mxCell>
        <mxCell id="I7_khpXOxJ3i9qSqHDg5-59" value="" style="rounded=0;whiteSpace=wrap;html=1;strokeColor=none;fillColor=#111111;strokeWidth=0.2;movable=1;resizable=1;rotatable=1;deletable=1;editable=1;locked=0;connectable=1;container=0;" parent="I7_khpXOxJ3i9qSqHDg5-44" vertex="1">
          <mxGeometry x="50.263829787234044" y="5.759433962264151" width="2.094326241134752" height="14.660377358490567" as="geometry" />
        </mxCell>
        <mxCell id="I7_khpXOxJ3i9qSqHDg5-60" value="" style="rounded=0;whiteSpace=wrap;html=1;strokeColor=none;fillColor=#222222;strokeWidth=0.5;movable=1;resizable=1;rotatable=1;deletable=1;editable=1;locked=0;connectable=1;container=0;" parent="I7_khpXOxJ3i9qSqHDg5-44" vertex="1">
          <mxGeometry x="13.613120567375915" y="16.2311320754717" width="55.499645390070924" height="2.0943396226415096" as="geometry" />
        </mxCell>
        <mxCell id="I7_khpXOxJ3i9qSqHDg5-61" value="" style="rounded=0;whiteSpace=wrap;html=1;strokeColor=none;fillColor=#222222;strokeWidth=0.5;movable=1;resizable=1;rotatable=1;deletable=1;editable=1;locked=0;connectable=1;container=0;" parent="I7_khpXOxJ3i9qSqHDg5-44" vertex="1">
          <mxGeometry x="13.613120567375915" y="12.04245283018868" width="55.499645390070924" height="2.0943396226415096" as="geometry" />
        </mxCell>
        <mxCell id="I7_khpXOxJ3i9qSqHDg5-62" value="" style="rounded=0;whiteSpace=wrap;html=1;strokeColor=none;fillColor=#222222;strokeWidth=0.5;movable=1;resizable=1;rotatable=1;deletable=1;editable=1;locked=0;connectable=1;container=0;" parent="I7_khpXOxJ3i9qSqHDg5-44" vertex="1">
          <mxGeometry x="13.613120567375915" y="7.85377358490566" width="55.499645390070924" height="2.0943396226415096" as="geometry" />
        </mxCell>
        <mxCell id="I7_khpXOxJ3i9qSqHDg5-63" value="" style="rounded=0;whiteSpace=wrap;html=1;strokeColor=none;fillColor=#111111;strokeWidth=0.2;movable=1;resizable=1;rotatable=1;deletable=1;editable=1;locked=0;connectable=1;container=0;" parent="I7_khpXOxJ3i9qSqHDg5-44" vertex="1">
          <mxGeometry x="9.424468085106412" y="5.759433962264151" width="4.188652482269504" height="14.660377358490567" as="geometry" />
        </mxCell>
        <mxCell id="I7_khpXOxJ3i9qSqHDg5-64" value="" style="rounded=0;whiteSpace=wrap;html=1;strokeColor=none;fillColor=#111111;strokeWidth=0.2;movable=1;resizable=1;rotatable=1;deletable=1;editable=1;locked=0;connectable=1;container=0;" parent="I7_khpXOxJ3i9qSqHDg5-44" vertex="1">
          <mxGeometry x="69.11276595744681" y="5.759433962264151" width="4.188652482269504" height="14.660377358490567" as="geometry" />
        </mxCell>
        <mxCell id="I7_khpXOxJ3i9qSqHDg5-65" value="" style="group" parent="I7_khpXOxJ3i9qSqHDg5-1" vertex="1" connectable="0">
          <mxGeometry width="109.95212765957444" height="26.179245283018872" as="geometry" />
        </mxCell>
        <mxCell id="I7_khpXOxJ3i9qSqHDg5-66" value="" style="rounded=0;whiteSpace=wrap;html=1;strokeColor=none;fillColor=#222222;strokeWidth=0.5;movable=1;resizable=1;rotatable=1;deletable=1;editable=1;locked=0;connectable=1;container=0;" parent="I7_khpXOxJ3i9qSqHDg5-65" vertex="1">
          <mxGeometry width="109.95212765957447" height="26.179245283018872" as="geometry" />
        </mxCell>
        <mxCell id="I7_khpXOxJ3i9qSqHDg5-67" value="" style="rounded=0;whiteSpace=wrap;html=1;strokeColor=#111111;fillColor=#000000;strokeWidth=0.5;movable=1;resizable=1;rotatable=1;deletable=1;editable=1;locked=0;connectable=1;container=0;align=center;verticalAlign=middle;fontFamily=Helvetica;fontSize=12;fontColor=default;" parent="I7_khpXOxJ3i9qSqHDg5-65" vertex="1">
          <mxGeometry x="3.1414893617020994" y="3.1415094339622627" width="101.57482269503546" height="19.89622641509434" as="geometry" />
        </mxCell>
        <mxCell id="I7_khpXOxJ3i9qSqHDg5-68" value="" style="rounded=1;whiteSpace=wrap;html=1;strokeColor=#222222;rotation=0;fillColor=#60a917;fontColor=#ffffff;movable=1;resizable=1;rotatable=1;deletable=1;editable=1;locked=0;connectable=1;container=0;direction=south;strokeWidth=0.1;" parent="I7_khpXOxJ3i9qSqHDg5-65" vertex="1">
          <mxGeometry x="105.763475177305" y="20.943396226415096" width="3.141489361702128" height="4.188679245283019" as="geometry" />
        </mxCell>
        <mxCell id="I7_khpXOxJ3i9qSqHDg5-69" value="" style="rounded=1;whiteSpace=wrap;html=1;strokeColor=#222222;rotation=0;fillColor=#0050ef;fontColor=#ffffff;movable=1;resizable=1;rotatable=1;deletable=1;editable=1;locked=0;connectable=1;container=0;direction=south;strokeWidth=0.1;" parent="I7_khpXOxJ3i9qSqHDg5-65" vertex="1">
          <mxGeometry x="105.763475177305" y="11.518867924528301" width="3.141489361702128" height="4.188679245283019" as="geometry" />
        </mxCell>
        <mxCell id="I7_khpXOxJ3i9qSqHDg5-70" value="" style="rounded=1;whiteSpace=wrap;html=1;strokeColor=none;fillColor=#0050ef;strokeWidth=0.5;fontColor=#ffffff;glass=0;movable=1;resizable=1;rotatable=1;deletable=1;editable=1;locked=0;connectable=1;container=0;" parent="I7_khpXOxJ3i9qSqHDg5-65" vertex="1">
          <mxGeometry x="78.53723404255317" y="6.283018867924529" width="8.377304964539007" height="13.613207547169813" as="geometry" />
        </mxCell>
        <mxCell id="I7_khpXOxJ3i9qSqHDg5-71" value="" style="shape=or;whiteSpace=wrap;html=1;fillColor=#0050ef;fontColor=#ffffff;strokeColor=none;movable=1;resizable=1;rotatable=1;deletable=1;editable=1;locked=0;connectable=1;container=0;" parent="I7_khpXOxJ3i9qSqHDg5-65" vertex="1">
          <mxGeometry x="85.86737588652483" y="6.283018867924529" width="3.141489361702128" height="13.613207547169813" as="geometry" />
        </mxCell>
        <mxCell id="I7_khpXOxJ3i9qSqHDg5-72" value="" style="sketch=0;html=1;strokeColor=#111111;shadow=0;fillColor=none;verticalAlign=top;labelPosition=center;verticalLabelPosition=bottom;shape=mxgraph.gcp2.a7_power;gradientColor=none;strokeWidth=0.2;movable=1;resizable=1;rotatable=1;deletable=1;editable=1;locked=0;connectable=1;container=0;" parent="I7_khpXOxJ3i9qSqHDg5-65" vertex="1">
          <mxGeometry x="105.763475177305" y="7.330188679245282" width="3.141489361702128" height="3.1415094339622645" as="geometry" />
        </mxCell>
        <mxCell id="I7_khpXOxJ3i9qSqHDg5-73" value="" style="strokeWidth=0.2;html=1;shape=mxgraph.flowchart.database;whiteSpace=wrap;strokeColor=#111111;fillColor=none;movable=1;resizable=1;rotatable=1;deletable=1;editable=1;locked=0;connectable=1;container=0;" parent="I7_khpXOxJ3i9qSqHDg5-65" vertex="1">
          <mxGeometry x="105.763475177305" y="16.754716981132077" width="3.141489361702128" height="3.1415094339622645" as="geometry" />
        </mxCell>
        <mxCell id="I7_khpXOxJ3i9qSqHDg5-74" value="" style="rounded=0;whiteSpace=wrap;html=1;strokeColor=none;fillColor=#222222;strokeWidth=0.5;movable=1;resizable=1;rotatable=1;deletable=1;editable=1;locked=0;connectable=1;container=0;" parent="I7_khpXOxJ3i9qSqHDg5-65" vertex="1">
          <mxGeometry x="3.1414893617020994" y="3.1415094339622627" width="80.63156028368795" height="19.89622641509434" as="geometry" />
        </mxCell>
        <mxCell id="I7_khpXOxJ3i9qSqHDg5-75" value="" style="rounded=0;whiteSpace=wrap;html=1;strokeColor=none;fillColor=#000000;strokeWidth=0.5;movable=1;resizable=1;rotatable=1;deletable=1;editable=1;locked=0;connectable=1;container=0;align=center;verticalAlign=middle;fontFamily=Helvetica;fontSize=12;fontColor=default;" parent="I7_khpXOxJ3i9qSqHDg5-65" vertex="1">
          <mxGeometry x="13.613120567375915" y="5.759433962264151" width="55.499645390070924" height="2.0943396226415096" as="geometry" />
        </mxCell>
        <mxCell id="I7_khpXOxJ3i9qSqHDg5-76" value="" style="rounded=0;whiteSpace=wrap;html=1;strokeColor=none;fillColor=#000000;strokeWidth=0.5;movable=1;resizable=1;rotatable=1;deletable=1;editable=1;locked=0;connectable=1;container=0;align=center;verticalAlign=middle;fontFamily=Helvetica;fontSize=12;fontColor=default;" parent="I7_khpXOxJ3i9qSqHDg5-65" vertex="1">
          <mxGeometry x="13.613120567375915" y="9.94811320754717" width="55.499645390070924" height="2.0943396226415096" as="geometry" />
        </mxCell>
        <mxCell id="I7_khpXOxJ3i9qSqHDg5-77" value="" style="rounded=0;whiteSpace=wrap;html=1;strokeColor=none;fillColor=#000000;strokeWidth=0.5;movable=1;resizable=1;rotatable=1;deletable=1;editable=1;locked=0;connectable=1;container=0;align=center;verticalAlign=middle;fontFamily=Helvetica;fontSize=12;fontColor=default;" parent="I7_khpXOxJ3i9qSqHDg5-65" vertex="1">
          <mxGeometry x="13.613120567375915" y="14.136792452830193" width="55.499645390070924" height="2.0943396226415096" as="geometry" />
        </mxCell>
        <mxCell id="I7_khpXOxJ3i9qSqHDg5-78" value="" style="rounded=0;whiteSpace=wrap;html=1;strokeColor=none;fillColor=#000000;strokeWidth=0.5;movable=1;resizable=1;rotatable=1;deletable=1;editable=1;locked=0;connectable=1;container=0;align=center;verticalAlign=middle;fontFamily=Helvetica;fontSize=12;fontColor=default;" parent="I7_khpXOxJ3i9qSqHDg5-65" vertex="1">
          <mxGeometry x="13.613120567375915" y="18.325471698113205" width="55.499645390070924" height="2.0943396226415096" as="geometry" />
        </mxCell>
        <mxCell id="I7_khpXOxJ3i9qSqHDg5-79" value="" style="rounded=0;whiteSpace=wrap;html=1;strokeColor=none;fillColor=#111111;strokeWidth=0.2;movable=1;resizable=1;rotatable=1;deletable=1;editable=1;locked=0;connectable=1;container=0;" parent="I7_khpXOxJ3i9qSqHDg5-65" vertex="1">
          <mxGeometry x="30.36773049645393" y="5.759433962264151" width="2.094326241134752" height="14.660377358490567" as="geometry" />
        </mxCell>
        <mxCell id="I7_khpXOxJ3i9qSqHDg5-80" value="" style="rounded=0;whiteSpace=wrap;html=1;strokeColor=none;fillColor=#111111;strokeWidth=0.2;movable=1;resizable=1;rotatable=1;deletable=1;editable=1;locked=0;connectable=1;container=0;" parent="I7_khpXOxJ3i9qSqHDg5-65" vertex="1">
          <mxGeometry x="50.263829787234044" y="5.759433962264151" width="2.094326241134752" height="14.660377358490567" as="geometry" />
        </mxCell>
        <mxCell id="I7_khpXOxJ3i9qSqHDg5-81" value="" style="rounded=0;whiteSpace=wrap;html=1;strokeColor=none;fillColor=#222222;strokeWidth=0.5;movable=1;resizable=1;rotatable=1;deletable=1;editable=1;locked=0;connectable=1;container=0;" parent="I7_khpXOxJ3i9qSqHDg5-65" vertex="1">
          <mxGeometry x="13.613120567375915" y="16.2311320754717" width="55.499645390070924" height="2.0943396226415096" as="geometry" />
        </mxCell>
        <mxCell id="I7_khpXOxJ3i9qSqHDg5-82" value="" style="rounded=0;whiteSpace=wrap;html=1;strokeColor=none;fillColor=#222222;strokeWidth=0.5;movable=1;resizable=1;rotatable=1;deletable=1;editable=1;locked=0;connectable=1;container=0;" parent="I7_khpXOxJ3i9qSqHDg5-65" vertex="1">
          <mxGeometry x="13.613120567375915" y="12.04245283018868" width="55.499645390070924" height="2.0943396226415096" as="geometry" />
        </mxCell>
        <mxCell id="I7_khpXOxJ3i9qSqHDg5-83" value="" style="rounded=0;whiteSpace=wrap;html=1;strokeColor=none;fillColor=#222222;strokeWidth=0.5;movable=1;resizable=1;rotatable=1;deletable=1;editable=1;locked=0;connectable=1;container=0;" parent="I7_khpXOxJ3i9qSqHDg5-65" vertex="1">
          <mxGeometry x="13.613120567375915" y="7.85377358490566" width="55.499645390070924" height="2.0943396226415096" as="geometry" />
        </mxCell>
        <mxCell id="I7_khpXOxJ3i9qSqHDg5-84" value="" style="rounded=0;whiteSpace=wrap;html=1;strokeColor=none;fillColor=#111111;strokeWidth=0.2;movable=1;resizable=1;rotatable=1;deletable=1;editable=1;locked=0;connectable=1;container=0;" parent="I7_khpXOxJ3i9qSqHDg5-65" vertex="1">
          <mxGeometry x="9.424468085106412" y="5.759433962264151" width="4.188652482269504" height="14.660377358490567" as="geometry" />
        </mxCell>
        <mxCell id="I7_khpXOxJ3i9qSqHDg5-85" value="" style="rounded=0;whiteSpace=wrap;html=1;strokeColor=none;fillColor=#111111;strokeWidth=0.2;movable=1;resizable=1;rotatable=1;deletable=1;editable=1;locked=0;connectable=1;container=0;" parent="I7_khpXOxJ3i9qSqHDg5-65" vertex="1">
          <mxGeometry x="69.11276595744681" y="5.759433962264151" width="4.188652482269504" height="14.660377358490567" as="geometry" />
        </mxCell>
        <mxCell id="PaUmts2U89IXsogHB_Yg-2" value="" style="rounded=0;whiteSpace=wrap;html=1;strokeColor=#aaaaaa;fillColor=#000000;strokeWidth=1;movable=1;resizable=1;rotatable=1;deletable=1;editable=1;locked=0;connectable=1;container=0;" vertex="1" parent="PaUmts2U89IXsogHB_Yg-3">
          <mxGeometry x="18.009999999999998" y="32.89999999999998" width="446.6" height="28" as="geometry" />
        </mxCell>
        <mxCell id="I7_khpXOxJ3i9qSqHDg5-86" value="" style="group" parent="PaUmts2U89IXsogHB_Yg-3" vertex="1" connectable="0">
          <mxGeometry x="19.83" y="33.8" width="442.95212765957444" height="26.179245283018872" as="geometry" />
        </mxCell>
        <mxCell id="I7_khpXOxJ3i9qSqHDg5-87" value="" style="group" parent="I7_khpXOxJ3i9qSqHDg5-86" vertex="1" connectable="0">
          <mxGeometry x="333" width="109.95212765957444" height="26.179245283018872" as="geometry" />
        </mxCell>
        <mxCell id="I7_khpXOxJ3i9qSqHDg5-88" value="" style="rounded=0;whiteSpace=wrap;html=1;strokeColor=none;fillColor=#222222;strokeWidth=0.5;movable=1;resizable=1;rotatable=1;deletable=1;editable=1;locked=0;connectable=1;container=0;" parent="I7_khpXOxJ3i9qSqHDg5-87" vertex="1">
          <mxGeometry width="109.95212765957447" height="26.179245283018872" as="geometry" />
        </mxCell>
        <mxCell id="I7_khpXOxJ3i9qSqHDg5-89" value="" style="rounded=0;whiteSpace=wrap;html=1;strokeColor=#111111;fillColor=#000000;strokeWidth=0.5;movable=1;resizable=1;rotatable=1;deletable=1;editable=1;locked=0;connectable=1;container=0;align=center;verticalAlign=middle;fontFamily=Helvetica;fontSize=12;fontColor=default;" parent="I7_khpXOxJ3i9qSqHDg5-87" vertex="1">
          <mxGeometry x="3.1414893617020994" y="3.1415094339622627" width="101.57482269503546" height="19.89622641509434" as="geometry" />
        </mxCell>
        <mxCell id="I7_khpXOxJ3i9qSqHDg5-90" value="" style="rounded=1;whiteSpace=wrap;html=1;strokeColor=#222222;rotation=0;fillColor=#60a917;fontColor=#ffffff;movable=1;resizable=1;rotatable=1;deletable=1;editable=1;locked=0;connectable=1;container=0;direction=south;strokeWidth=0.1;" parent="I7_khpXOxJ3i9qSqHDg5-87" vertex="1">
          <mxGeometry x="105.763475177305" y="20.943396226415096" width="3.141489361702128" height="4.188679245283019" as="geometry" />
        </mxCell>
        <mxCell id="I7_khpXOxJ3i9qSqHDg5-91" value="" style="rounded=1;whiteSpace=wrap;html=1;strokeColor=#222222;rotation=0;fillColor=#0050ef;fontColor=#ffffff;movable=1;resizable=1;rotatable=1;deletable=1;editable=1;locked=0;connectable=1;container=0;direction=south;strokeWidth=0.1;" parent="I7_khpXOxJ3i9qSqHDg5-87" vertex="1">
          <mxGeometry x="105.763475177305" y="11.518867924528301" width="3.141489361702128" height="4.188679245283019" as="geometry" />
        </mxCell>
        <mxCell id="I7_khpXOxJ3i9qSqHDg5-92" value="" style="rounded=1;whiteSpace=wrap;html=1;strokeColor=none;fillColor=#0050ef;strokeWidth=0.5;fontColor=#ffffff;glass=0;movable=1;resizable=1;rotatable=1;deletable=1;editable=1;locked=0;connectable=1;container=0;" parent="I7_khpXOxJ3i9qSqHDg5-87" vertex="1">
          <mxGeometry x="78.53723404255317" y="6.283018867924529" width="8.377304964539007" height="13.613207547169813" as="geometry" />
        </mxCell>
        <mxCell id="I7_khpXOxJ3i9qSqHDg5-93" value="" style="shape=or;whiteSpace=wrap;html=1;fillColor=#0050ef;fontColor=#ffffff;strokeColor=none;movable=1;resizable=1;rotatable=1;deletable=1;editable=1;locked=0;connectable=1;container=0;" parent="I7_khpXOxJ3i9qSqHDg5-87" vertex="1">
          <mxGeometry x="85.86737588652483" y="6.283018867924529" width="3.141489361702128" height="13.613207547169813" as="geometry" />
        </mxCell>
        <mxCell id="I7_khpXOxJ3i9qSqHDg5-94" value="" style="sketch=0;html=1;strokeColor=#111111;shadow=0;fillColor=none;verticalAlign=top;labelPosition=center;verticalLabelPosition=bottom;shape=mxgraph.gcp2.a7_power;gradientColor=none;strokeWidth=0.2;movable=1;resizable=1;rotatable=1;deletable=1;editable=1;locked=0;connectable=1;container=0;" parent="I7_khpXOxJ3i9qSqHDg5-87" vertex="1">
          <mxGeometry x="105.763475177305" y="7.330188679245282" width="3.141489361702128" height="3.1415094339622645" as="geometry" />
        </mxCell>
        <mxCell id="I7_khpXOxJ3i9qSqHDg5-95" value="" style="strokeWidth=0.2;html=1;shape=mxgraph.flowchart.database;whiteSpace=wrap;strokeColor=#111111;fillColor=none;movable=1;resizable=1;rotatable=1;deletable=1;editable=1;locked=0;connectable=1;container=0;" parent="I7_khpXOxJ3i9qSqHDg5-87" vertex="1">
          <mxGeometry x="105.763475177305" y="16.754716981132077" width="3.141489361702128" height="3.1415094339622645" as="geometry" />
        </mxCell>
        <mxCell id="I7_khpXOxJ3i9qSqHDg5-96" value="" style="rounded=0;whiteSpace=wrap;html=1;strokeColor=none;fillColor=#222222;strokeWidth=0.5;movable=1;resizable=1;rotatable=1;deletable=1;editable=1;locked=0;connectable=1;container=0;" parent="I7_khpXOxJ3i9qSqHDg5-87" vertex="1">
          <mxGeometry x="3.1414893617020994" y="3.1415094339622627" width="80.63156028368795" height="19.89622641509434" as="geometry" />
        </mxCell>
        <mxCell id="I7_khpXOxJ3i9qSqHDg5-97" value="" style="rounded=0;whiteSpace=wrap;html=1;strokeColor=none;fillColor=#000000;strokeWidth=0.5;movable=1;resizable=1;rotatable=1;deletable=1;editable=1;locked=0;connectable=1;container=0;align=center;verticalAlign=middle;fontFamily=Helvetica;fontSize=12;fontColor=default;" parent="I7_khpXOxJ3i9qSqHDg5-87" vertex="1">
          <mxGeometry x="13.613120567375915" y="5.759433962264151" width="55.499645390070924" height="2.0943396226415096" as="geometry" />
        </mxCell>
        <mxCell id="I7_khpXOxJ3i9qSqHDg5-98" value="" style="rounded=0;whiteSpace=wrap;html=1;strokeColor=none;fillColor=#000000;strokeWidth=0.5;movable=1;resizable=1;rotatable=1;deletable=1;editable=1;locked=0;connectable=1;container=0;align=center;verticalAlign=middle;fontFamily=Helvetica;fontSize=12;fontColor=default;" parent="I7_khpXOxJ3i9qSqHDg5-87" vertex="1">
          <mxGeometry x="13.613120567375915" y="9.94811320754717" width="55.499645390070924" height="2.0943396226415096" as="geometry" />
        </mxCell>
        <mxCell id="I7_khpXOxJ3i9qSqHDg5-99" value="" style="rounded=0;whiteSpace=wrap;html=1;strokeColor=none;fillColor=#000000;strokeWidth=0.5;movable=1;resizable=1;rotatable=1;deletable=1;editable=1;locked=0;connectable=1;container=0;align=center;verticalAlign=middle;fontFamily=Helvetica;fontSize=12;fontColor=default;" parent="I7_khpXOxJ3i9qSqHDg5-87" vertex="1">
          <mxGeometry x="13.613120567375915" y="14.136792452830193" width="55.499645390070924" height="2.0943396226415096" as="geometry" />
        </mxCell>
        <mxCell id="I7_khpXOxJ3i9qSqHDg5-100" value="" style="rounded=0;whiteSpace=wrap;html=1;strokeColor=none;fillColor=#000000;strokeWidth=0.5;movable=1;resizable=1;rotatable=1;deletable=1;editable=1;locked=0;connectable=1;container=0;align=center;verticalAlign=middle;fontFamily=Helvetica;fontSize=12;fontColor=default;" parent="I7_khpXOxJ3i9qSqHDg5-87" vertex="1">
          <mxGeometry x="13.613120567375915" y="18.325471698113205" width="55.499645390070924" height="2.0943396226415096" as="geometry" />
        </mxCell>
        <mxCell id="I7_khpXOxJ3i9qSqHDg5-101" value="" style="rounded=0;whiteSpace=wrap;html=1;strokeColor=none;fillColor=#111111;strokeWidth=0.2;movable=1;resizable=1;rotatable=1;deletable=1;editable=1;locked=0;connectable=1;container=0;" parent="I7_khpXOxJ3i9qSqHDg5-87" vertex="1">
          <mxGeometry x="30.36773049645393" y="5.759433962264151" width="2.094326241134752" height="14.660377358490567" as="geometry" />
        </mxCell>
        <mxCell id="I7_khpXOxJ3i9qSqHDg5-102" value="" style="rounded=0;whiteSpace=wrap;html=1;strokeColor=none;fillColor=#111111;strokeWidth=0.2;movable=1;resizable=1;rotatable=1;deletable=1;editable=1;locked=0;connectable=1;container=0;" parent="I7_khpXOxJ3i9qSqHDg5-87" vertex="1">
          <mxGeometry x="50.263829787234044" y="5.759433962264151" width="2.094326241134752" height="14.660377358490567" as="geometry" />
        </mxCell>
        <mxCell id="I7_khpXOxJ3i9qSqHDg5-103" value="" style="rounded=0;whiteSpace=wrap;html=1;strokeColor=none;fillColor=#222222;strokeWidth=0.5;movable=1;resizable=1;rotatable=1;deletable=1;editable=1;locked=0;connectable=1;container=0;" parent="I7_khpXOxJ3i9qSqHDg5-87" vertex="1">
          <mxGeometry x="13.613120567375915" y="16.2311320754717" width="55.499645390070924" height="2.0943396226415096" as="geometry" />
        </mxCell>
        <mxCell id="I7_khpXOxJ3i9qSqHDg5-104" value="" style="rounded=0;whiteSpace=wrap;html=1;strokeColor=none;fillColor=#222222;strokeWidth=0.5;movable=1;resizable=1;rotatable=1;deletable=1;editable=1;locked=0;connectable=1;container=0;" parent="I7_khpXOxJ3i9qSqHDg5-87" vertex="1">
          <mxGeometry x="13.613120567375915" y="12.04245283018868" width="55.499645390070924" height="2.0943396226415096" as="geometry" />
        </mxCell>
        <mxCell id="I7_khpXOxJ3i9qSqHDg5-105" value="" style="rounded=0;whiteSpace=wrap;html=1;strokeColor=none;fillColor=#222222;strokeWidth=0.5;movable=1;resizable=1;rotatable=1;deletable=1;editable=1;locked=0;connectable=1;container=0;" parent="I7_khpXOxJ3i9qSqHDg5-87" vertex="1">
          <mxGeometry x="13.613120567375915" y="7.85377358490566" width="55.499645390070924" height="2.0943396226415096" as="geometry" />
        </mxCell>
        <mxCell id="I7_khpXOxJ3i9qSqHDg5-106" value="" style="rounded=0;whiteSpace=wrap;html=1;strokeColor=none;fillColor=#111111;strokeWidth=0.2;movable=1;resizable=1;rotatable=1;deletable=1;editable=1;locked=0;connectable=1;container=0;" parent="I7_khpXOxJ3i9qSqHDg5-87" vertex="1">
          <mxGeometry x="9.424468085106412" y="5.759433962264151" width="4.188652482269504" height="14.660377358490567" as="geometry" />
        </mxCell>
        <mxCell id="I7_khpXOxJ3i9qSqHDg5-107" value="" style="rounded=0;whiteSpace=wrap;html=1;strokeColor=none;fillColor=#111111;strokeWidth=0.2;movable=1;resizable=1;rotatable=1;deletable=1;editable=1;locked=0;connectable=1;container=0;" parent="I7_khpXOxJ3i9qSqHDg5-87" vertex="1">
          <mxGeometry x="69.11276595744681" y="5.759433962264151" width="4.188652482269504" height="14.660377358490567" as="geometry" />
        </mxCell>
        <mxCell id="I7_khpXOxJ3i9qSqHDg5-108" value="" style="group" parent="I7_khpXOxJ3i9qSqHDg5-86" vertex="1" connectable="0">
          <mxGeometry x="222" width="109.95212765957444" height="26.179245283018872" as="geometry" />
        </mxCell>
        <mxCell id="I7_khpXOxJ3i9qSqHDg5-109" value="" style="rounded=0;whiteSpace=wrap;html=1;strokeColor=none;fillColor=#222222;strokeWidth=0.5;movable=1;resizable=1;rotatable=1;deletable=1;editable=1;locked=0;connectable=1;container=0;" parent="I7_khpXOxJ3i9qSqHDg5-108" vertex="1">
          <mxGeometry width="109.95212765957447" height="26.179245283018872" as="geometry" />
        </mxCell>
        <mxCell id="I7_khpXOxJ3i9qSqHDg5-110" value="" style="rounded=0;whiteSpace=wrap;html=1;strokeColor=#111111;fillColor=#000000;strokeWidth=0.5;movable=1;resizable=1;rotatable=1;deletable=1;editable=1;locked=0;connectable=1;container=0;align=center;verticalAlign=middle;fontFamily=Helvetica;fontSize=12;fontColor=default;" parent="I7_khpXOxJ3i9qSqHDg5-108" vertex="1">
          <mxGeometry x="3.1414893617020994" y="3.1415094339622627" width="101.57482269503546" height="19.89622641509434" as="geometry" />
        </mxCell>
        <mxCell id="I7_khpXOxJ3i9qSqHDg5-111" value="" style="rounded=1;whiteSpace=wrap;html=1;strokeColor=#222222;rotation=0;fillColor=#60a917;fontColor=#ffffff;movable=1;resizable=1;rotatable=1;deletable=1;editable=1;locked=0;connectable=1;container=0;direction=south;strokeWidth=0.1;" parent="I7_khpXOxJ3i9qSqHDg5-108" vertex="1">
          <mxGeometry x="105.763475177305" y="20.943396226415096" width="3.141489361702128" height="4.188679245283019" as="geometry" />
        </mxCell>
        <mxCell id="I7_khpXOxJ3i9qSqHDg5-112" value="" style="rounded=1;whiteSpace=wrap;html=1;strokeColor=#222222;rotation=0;fillColor=#0050ef;fontColor=#ffffff;movable=1;resizable=1;rotatable=1;deletable=1;editable=1;locked=0;connectable=1;container=0;direction=south;strokeWidth=0.1;" parent="I7_khpXOxJ3i9qSqHDg5-108" vertex="1">
          <mxGeometry x="105.763475177305" y="11.518867924528301" width="3.141489361702128" height="4.188679245283019" as="geometry" />
        </mxCell>
        <mxCell id="I7_khpXOxJ3i9qSqHDg5-113" value="" style="rounded=1;whiteSpace=wrap;html=1;strokeColor=none;fillColor=#0050ef;strokeWidth=0.5;fontColor=#ffffff;glass=0;movable=1;resizable=1;rotatable=1;deletable=1;editable=1;locked=0;connectable=1;container=0;" parent="I7_khpXOxJ3i9qSqHDg5-108" vertex="1">
          <mxGeometry x="78.53723404255317" y="6.283018867924529" width="8.377304964539007" height="13.613207547169813" as="geometry" />
        </mxCell>
        <mxCell id="I7_khpXOxJ3i9qSqHDg5-114" value="" style="shape=or;whiteSpace=wrap;html=1;fillColor=#0050ef;fontColor=#ffffff;strokeColor=none;movable=1;resizable=1;rotatable=1;deletable=1;editable=1;locked=0;connectable=1;container=0;" parent="I7_khpXOxJ3i9qSqHDg5-108" vertex="1">
          <mxGeometry x="85.86737588652483" y="6.283018867924529" width="3.141489361702128" height="13.613207547169813" as="geometry" />
        </mxCell>
        <mxCell id="I7_khpXOxJ3i9qSqHDg5-115" value="" style="sketch=0;html=1;strokeColor=#111111;shadow=0;fillColor=none;verticalAlign=top;labelPosition=center;verticalLabelPosition=bottom;shape=mxgraph.gcp2.a7_power;gradientColor=none;strokeWidth=0.2;movable=1;resizable=1;rotatable=1;deletable=1;editable=1;locked=0;connectable=1;container=0;" parent="I7_khpXOxJ3i9qSqHDg5-108" vertex="1">
          <mxGeometry x="105.763475177305" y="7.330188679245282" width="3.141489361702128" height="3.1415094339622645" as="geometry" />
        </mxCell>
        <mxCell id="I7_khpXOxJ3i9qSqHDg5-116" value="" style="strokeWidth=0.2;html=1;shape=mxgraph.flowchart.database;whiteSpace=wrap;strokeColor=#111111;fillColor=none;movable=1;resizable=1;rotatable=1;deletable=1;editable=1;locked=0;connectable=1;container=0;" parent="I7_khpXOxJ3i9qSqHDg5-108" vertex="1">
          <mxGeometry x="105.763475177305" y="16.754716981132077" width="3.141489361702128" height="3.1415094339622645" as="geometry" />
        </mxCell>
        <mxCell id="I7_khpXOxJ3i9qSqHDg5-117" value="" style="rounded=0;whiteSpace=wrap;html=1;strokeColor=none;fillColor=#222222;strokeWidth=0.5;movable=1;resizable=1;rotatable=1;deletable=1;editable=1;locked=0;connectable=1;container=0;" parent="I7_khpXOxJ3i9qSqHDg5-108" vertex="1">
          <mxGeometry x="3.1414893617020994" y="3.1415094339622627" width="80.63156028368795" height="19.89622641509434" as="geometry" />
        </mxCell>
        <mxCell id="I7_khpXOxJ3i9qSqHDg5-118" value="" style="rounded=0;whiteSpace=wrap;html=1;strokeColor=none;fillColor=#000000;strokeWidth=0.5;movable=1;resizable=1;rotatable=1;deletable=1;editable=1;locked=0;connectable=1;container=0;align=center;verticalAlign=middle;fontFamily=Helvetica;fontSize=12;fontColor=default;" parent="I7_khpXOxJ3i9qSqHDg5-108" vertex="1">
          <mxGeometry x="13.613120567375915" y="5.759433962264151" width="55.499645390070924" height="2.0943396226415096" as="geometry" />
        </mxCell>
        <mxCell id="I7_khpXOxJ3i9qSqHDg5-119" value="" style="rounded=0;whiteSpace=wrap;html=1;strokeColor=none;fillColor=#000000;strokeWidth=0.5;movable=1;resizable=1;rotatable=1;deletable=1;editable=1;locked=0;connectable=1;container=0;align=center;verticalAlign=middle;fontFamily=Helvetica;fontSize=12;fontColor=default;" parent="I7_khpXOxJ3i9qSqHDg5-108" vertex="1">
          <mxGeometry x="13.613120567375915" y="9.94811320754717" width="55.499645390070924" height="2.0943396226415096" as="geometry" />
        </mxCell>
        <mxCell id="I7_khpXOxJ3i9qSqHDg5-120" value="" style="rounded=0;whiteSpace=wrap;html=1;strokeColor=none;fillColor=#000000;strokeWidth=0.5;movable=1;resizable=1;rotatable=1;deletable=1;editable=1;locked=0;connectable=1;container=0;align=center;verticalAlign=middle;fontFamily=Helvetica;fontSize=12;fontColor=default;" parent="I7_khpXOxJ3i9qSqHDg5-108" vertex="1">
          <mxGeometry x="13.613120567375915" y="14.136792452830193" width="55.499645390070924" height="2.0943396226415096" as="geometry" />
        </mxCell>
        <mxCell id="I7_khpXOxJ3i9qSqHDg5-121" value="" style="rounded=0;whiteSpace=wrap;html=1;strokeColor=none;fillColor=#000000;strokeWidth=0.5;movable=1;resizable=1;rotatable=1;deletable=1;editable=1;locked=0;connectable=1;container=0;align=center;verticalAlign=middle;fontFamily=Helvetica;fontSize=12;fontColor=default;" parent="I7_khpXOxJ3i9qSqHDg5-108" vertex="1">
          <mxGeometry x="13.613120567375915" y="18.325471698113205" width="55.499645390070924" height="2.0943396226415096" as="geometry" />
        </mxCell>
        <mxCell id="I7_khpXOxJ3i9qSqHDg5-122" value="" style="rounded=0;whiteSpace=wrap;html=1;strokeColor=none;fillColor=#111111;strokeWidth=0.2;movable=1;resizable=1;rotatable=1;deletable=1;editable=1;locked=0;connectable=1;container=0;" parent="I7_khpXOxJ3i9qSqHDg5-108" vertex="1">
          <mxGeometry x="30.36773049645393" y="5.759433962264151" width="2.094326241134752" height="14.660377358490567" as="geometry" />
        </mxCell>
        <mxCell id="I7_khpXOxJ3i9qSqHDg5-123" value="" style="rounded=0;whiteSpace=wrap;html=1;strokeColor=none;fillColor=#111111;strokeWidth=0.2;movable=1;resizable=1;rotatable=1;deletable=1;editable=1;locked=0;connectable=1;container=0;" parent="I7_khpXOxJ3i9qSqHDg5-108" vertex="1">
          <mxGeometry x="50.263829787234044" y="5.759433962264151" width="2.094326241134752" height="14.660377358490567" as="geometry" />
        </mxCell>
        <mxCell id="I7_khpXOxJ3i9qSqHDg5-124" value="" style="rounded=0;whiteSpace=wrap;html=1;strokeColor=none;fillColor=#222222;strokeWidth=0.5;movable=1;resizable=1;rotatable=1;deletable=1;editable=1;locked=0;connectable=1;container=0;" parent="I7_khpXOxJ3i9qSqHDg5-108" vertex="1">
          <mxGeometry x="13.613120567375915" y="16.2311320754717" width="55.499645390070924" height="2.0943396226415096" as="geometry" />
        </mxCell>
        <mxCell id="I7_khpXOxJ3i9qSqHDg5-125" value="" style="rounded=0;whiteSpace=wrap;html=1;strokeColor=none;fillColor=#222222;strokeWidth=0.5;movable=1;resizable=1;rotatable=1;deletable=1;editable=1;locked=0;connectable=1;container=0;" parent="I7_khpXOxJ3i9qSqHDg5-108" vertex="1">
          <mxGeometry x="13.613120567375915" y="12.04245283018868" width="55.499645390070924" height="2.0943396226415096" as="geometry" />
        </mxCell>
        <mxCell id="I7_khpXOxJ3i9qSqHDg5-126" value="" style="rounded=0;whiteSpace=wrap;html=1;strokeColor=none;fillColor=#222222;strokeWidth=0.5;movable=1;resizable=1;rotatable=1;deletable=1;editable=1;locked=0;connectable=1;container=0;" parent="I7_khpXOxJ3i9qSqHDg5-108" vertex="1">
          <mxGeometry x="13.613120567375915" y="7.85377358490566" width="55.499645390070924" height="2.0943396226415096" as="geometry" />
        </mxCell>
        <mxCell id="I7_khpXOxJ3i9qSqHDg5-127" value="" style="rounded=0;whiteSpace=wrap;html=1;strokeColor=none;fillColor=#111111;strokeWidth=0.2;movable=1;resizable=1;rotatable=1;deletable=1;editable=1;locked=0;connectable=1;container=0;" parent="I7_khpXOxJ3i9qSqHDg5-108" vertex="1">
          <mxGeometry x="9.424468085106412" y="5.759433962264151" width="4.188652482269504" height="14.660377358490567" as="geometry" />
        </mxCell>
        <mxCell id="I7_khpXOxJ3i9qSqHDg5-128" value="" style="rounded=0;whiteSpace=wrap;html=1;strokeColor=none;fillColor=#111111;strokeWidth=0.2;movable=1;resizable=1;rotatable=1;deletable=1;editable=1;locked=0;connectable=1;container=0;" parent="I7_khpXOxJ3i9qSqHDg5-108" vertex="1">
          <mxGeometry x="69.11276595744681" y="5.759433962264151" width="4.188652482269504" height="14.660377358490567" as="geometry" />
        </mxCell>
        <mxCell id="I7_khpXOxJ3i9qSqHDg5-129" value="" style="group" parent="I7_khpXOxJ3i9qSqHDg5-86" vertex="1" connectable="0">
          <mxGeometry x="111" width="109.95212765957444" height="26.179245283018872" as="geometry" />
        </mxCell>
        <mxCell id="I7_khpXOxJ3i9qSqHDg5-130" value="" style="rounded=0;whiteSpace=wrap;html=1;strokeColor=none;fillColor=#222222;strokeWidth=0.5;movable=1;resizable=1;rotatable=1;deletable=1;editable=1;locked=0;connectable=1;container=0;" parent="I7_khpXOxJ3i9qSqHDg5-129" vertex="1">
          <mxGeometry width="109.95212765957447" height="26.179245283018872" as="geometry" />
        </mxCell>
        <mxCell id="I7_khpXOxJ3i9qSqHDg5-131" value="" style="rounded=0;whiteSpace=wrap;html=1;strokeColor=#111111;fillColor=#000000;strokeWidth=0.5;movable=1;resizable=1;rotatable=1;deletable=1;editable=1;locked=0;connectable=1;container=0;align=center;verticalAlign=middle;fontFamily=Helvetica;fontSize=12;fontColor=default;" parent="I7_khpXOxJ3i9qSqHDg5-129" vertex="1">
          <mxGeometry x="3.1414893617020994" y="3.1415094339622627" width="101.57482269503546" height="19.89622641509434" as="geometry" />
        </mxCell>
        <mxCell id="I7_khpXOxJ3i9qSqHDg5-132" value="" style="rounded=1;whiteSpace=wrap;html=1;strokeColor=#222222;rotation=0;fillColor=#60a917;fontColor=#ffffff;movable=1;resizable=1;rotatable=1;deletable=1;editable=1;locked=0;connectable=1;container=0;direction=south;strokeWidth=0.1;" parent="I7_khpXOxJ3i9qSqHDg5-129" vertex="1">
          <mxGeometry x="105.763475177305" y="20.943396226415096" width="3.141489361702128" height="4.188679245283019" as="geometry" />
        </mxCell>
        <mxCell id="I7_khpXOxJ3i9qSqHDg5-133" value="" style="rounded=1;whiteSpace=wrap;html=1;strokeColor=#222222;rotation=0;fillColor=#0050ef;fontColor=#ffffff;movable=1;resizable=1;rotatable=1;deletable=1;editable=1;locked=0;connectable=1;container=0;direction=south;strokeWidth=0.1;" parent="I7_khpXOxJ3i9qSqHDg5-129" vertex="1">
          <mxGeometry x="105.763475177305" y="11.518867924528301" width="3.141489361702128" height="4.188679245283019" as="geometry" />
        </mxCell>
        <mxCell id="I7_khpXOxJ3i9qSqHDg5-134" value="" style="rounded=1;whiteSpace=wrap;html=1;strokeColor=none;fillColor=#0050ef;strokeWidth=0.5;fontColor=#ffffff;glass=0;movable=1;resizable=1;rotatable=1;deletable=1;editable=1;locked=0;connectable=1;container=0;" parent="I7_khpXOxJ3i9qSqHDg5-129" vertex="1">
          <mxGeometry x="78.53723404255317" y="6.283018867924529" width="8.377304964539007" height="13.613207547169813" as="geometry" />
        </mxCell>
        <mxCell id="I7_khpXOxJ3i9qSqHDg5-135" value="" style="shape=or;whiteSpace=wrap;html=1;fillColor=#0050ef;fontColor=#ffffff;strokeColor=none;movable=1;resizable=1;rotatable=1;deletable=1;editable=1;locked=0;connectable=1;container=0;" parent="I7_khpXOxJ3i9qSqHDg5-129" vertex="1">
          <mxGeometry x="85.86737588652483" y="6.283018867924529" width="3.141489361702128" height="13.613207547169813" as="geometry" />
        </mxCell>
        <mxCell id="I7_khpXOxJ3i9qSqHDg5-136" value="" style="sketch=0;html=1;strokeColor=#111111;shadow=0;fillColor=none;verticalAlign=top;labelPosition=center;verticalLabelPosition=bottom;shape=mxgraph.gcp2.a7_power;gradientColor=none;strokeWidth=0.2;movable=1;resizable=1;rotatable=1;deletable=1;editable=1;locked=0;connectable=1;container=0;" parent="I7_khpXOxJ3i9qSqHDg5-129" vertex="1">
          <mxGeometry x="105.763475177305" y="7.330188679245282" width="3.141489361702128" height="3.1415094339622645" as="geometry" />
        </mxCell>
        <mxCell id="I7_khpXOxJ3i9qSqHDg5-137" value="" style="strokeWidth=0.2;html=1;shape=mxgraph.flowchart.database;whiteSpace=wrap;strokeColor=#111111;fillColor=none;movable=1;resizable=1;rotatable=1;deletable=1;editable=1;locked=0;connectable=1;container=0;" parent="I7_khpXOxJ3i9qSqHDg5-129" vertex="1">
          <mxGeometry x="105.763475177305" y="16.754716981132077" width="3.141489361702128" height="3.1415094339622645" as="geometry" />
        </mxCell>
        <mxCell id="I7_khpXOxJ3i9qSqHDg5-138" value="" style="rounded=0;whiteSpace=wrap;html=1;strokeColor=none;fillColor=#222222;strokeWidth=0.5;movable=1;resizable=1;rotatable=1;deletable=1;editable=1;locked=0;connectable=1;container=0;" parent="I7_khpXOxJ3i9qSqHDg5-129" vertex="1">
          <mxGeometry x="3.1414893617020994" y="3.1415094339622627" width="80.63156028368795" height="19.89622641509434" as="geometry" />
        </mxCell>
        <mxCell id="I7_khpXOxJ3i9qSqHDg5-139" value="" style="rounded=0;whiteSpace=wrap;html=1;strokeColor=none;fillColor=#000000;strokeWidth=0.5;movable=1;resizable=1;rotatable=1;deletable=1;editable=1;locked=0;connectable=1;container=0;align=center;verticalAlign=middle;fontFamily=Helvetica;fontSize=12;fontColor=default;" parent="I7_khpXOxJ3i9qSqHDg5-129" vertex="1">
          <mxGeometry x="13.613120567375915" y="5.759433962264151" width="55.499645390070924" height="2.0943396226415096" as="geometry" />
        </mxCell>
        <mxCell id="I7_khpXOxJ3i9qSqHDg5-140" value="" style="rounded=0;whiteSpace=wrap;html=1;strokeColor=none;fillColor=#000000;strokeWidth=0.5;movable=1;resizable=1;rotatable=1;deletable=1;editable=1;locked=0;connectable=1;container=0;align=center;verticalAlign=middle;fontFamily=Helvetica;fontSize=12;fontColor=default;" parent="I7_khpXOxJ3i9qSqHDg5-129" vertex="1">
          <mxGeometry x="13.613120567375915" y="9.94811320754717" width="55.499645390070924" height="2.0943396226415096" as="geometry" />
        </mxCell>
        <mxCell id="I7_khpXOxJ3i9qSqHDg5-141" value="" style="rounded=0;whiteSpace=wrap;html=1;strokeColor=none;fillColor=#000000;strokeWidth=0.5;movable=1;resizable=1;rotatable=1;deletable=1;editable=1;locked=0;connectable=1;container=0;align=center;verticalAlign=middle;fontFamily=Helvetica;fontSize=12;fontColor=default;" parent="I7_khpXOxJ3i9qSqHDg5-129" vertex="1">
          <mxGeometry x="13.613120567375915" y="14.136792452830193" width="55.499645390070924" height="2.0943396226415096" as="geometry" />
        </mxCell>
        <mxCell id="I7_khpXOxJ3i9qSqHDg5-142" value="" style="rounded=0;whiteSpace=wrap;html=1;strokeColor=none;fillColor=#000000;strokeWidth=0.5;movable=1;resizable=1;rotatable=1;deletable=1;editable=1;locked=0;connectable=1;container=0;align=center;verticalAlign=middle;fontFamily=Helvetica;fontSize=12;fontColor=default;" parent="I7_khpXOxJ3i9qSqHDg5-129" vertex="1">
          <mxGeometry x="13.613120567375915" y="18.325471698113205" width="55.499645390070924" height="2.0943396226415096" as="geometry" />
        </mxCell>
        <mxCell id="I7_khpXOxJ3i9qSqHDg5-143" value="" style="rounded=0;whiteSpace=wrap;html=1;strokeColor=none;fillColor=#111111;strokeWidth=0.2;movable=1;resizable=1;rotatable=1;deletable=1;editable=1;locked=0;connectable=1;container=0;" parent="I7_khpXOxJ3i9qSqHDg5-129" vertex="1">
          <mxGeometry x="30.36773049645393" y="5.759433962264151" width="2.094326241134752" height="14.660377358490567" as="geometry" />
        </mxCell>
        <mxCell id="I7_khpXOxJ3i9qSqHDg5-144" value="" style="rounded=0;whiteSpace=wrap;html=1;strokeColor=none;fillColor=#111111;strokeWidth=0.2;movable=1;resizable=1;rotatable=1;deletable=1;editable=1;locked=0;connectable=1;container=0;" parent="I7_khpXOxJ3i9qSqHDg5-129" vertex="1">
          <mxGeometry x="50.263829787234044" y="5.759433962264151" width="2.094326241134752" height="14.660377358490567" as="geometry" />
        </mxCell>
        <mxCell id="I7_khpXOxJ3i9qSqHDg5-145" value="" style="rounded=0;whiteSpace=wrap;html=1;strokeColor=none;fillColor=#222222;strokeWidth=0.5;movable=1;resizable=1;rotatable=1;deletable=1;editable=1;locked=0;connectable=1;container=0;" parent="I7_khpXOxJ3i9qSqHDg5-129" vertex="1">
          <mxGeometry x="13.613120567375915" y="16.2311320754717" width="55.499645390070924" height="2.0943396226415096" as="geometry" />
        </mxCell>
        <mxCell id="I7_khpXOxJ3i9qSqHDg5-146" value="" style="rounded=0;whiteSpace=wrap;html=1;strokeColor=none;fillColor=#222222;strokeWidth=0.5;movable=1;resizable=1;rotatable=1;deletable=1;editable=1;locked=0;connectable=1;container=0;" parent="I7_khpXOxJ3i9qSqHDg5-129" vertex="1">
          <mxGeometry x="13.613120567375915" y="12.04245283018868" width="55.499645390070924" height="2.0943396226415096" as="geometry" />
        </mxCell>
        <mxCell id="I7_khpXOxJ3i9qSqHDg5-147" value="" style="rounded=0;whiteSpace=wrap;html=1;strokeColor=none;fillColor=#222222;strokeWidth=0.5;movable=1;resizable=1;rotatable=1;deletable=1;editable=1;locked=0;connectable=1;container=0;" parent="I7_khpXOxJ3i9qSqHDg5-129" vertex="1">
          <mxGeometry x="13.613120567375915" y="7.85377358490566" width="55.499645390070924" height="2.0943396226415096" as="geometry" />
        </mxCell>
        <mxCell id="I7_khpXOxJ3i9qSqHDg5-148" value="" style="rounded=0;whiteSpace=wrap;html=1;strokeColor=none;fillColor=#111111;strokeWidth=0.2;movable=1;resizable=1;rotatable=1;deletable=1;editable=1;locked=0;connectable=1;container=0;" parent="I7_khpXOxJ3i9qSqHDg5-129" vertex="1">
          <mxGeometry x="9.424468085106412" y="5.759433962264151" width="4.188652482269504" height="14.660377358490567" as="geometry" />
        </mxCell>
        <mxCell id="I7_khpXOxJ3i9qSqHDg5-149" value="" style="rounded=0;whiteSpace=wrap;html=1;strokeColor=none;fillColor=#111111;strokeWidth=0.2;movable=1;resizable=1;rotatable=1;deletable=1;editable=1;locked=0;connectable=1;container=0;" parent="I7_khpXOxJ3i9qSqHDg5-129" vertex="1">
          <mxGeometry x="69.11276595744681" y="5.759433962264151" width="4.188652482269504" height="14.660377358490567" as="geometry" />
        </mxCell>
        <mxCell id="I7_khpXOxJ3i9qSqHDg5-150" value="" style="group" parent="I7_khpXOxJ3i9qSqHDg5-86" vertex="1" connectable="0">
          <mxGeometry width="109.95212765957444" height="26.179245283018872" as="geometry" />
        </mxCell>
        <mxCell id="I7_khpXOxJ3i9qSqHDg5-151" value="" style="rounded=0;whiteSpace=wrap;html=1;strokeColor=none;fillColor=#222222;strokeWidth=0.5;movable=1;resizable=1;rotatable=1;deletable=1;editable=1;locked=0;connectable=1;container=0;" parent="I7_khpXOxJ3i9qSqHDg5-150" vertex="1">
          <mxGeometry width="109.95212765957447" height="26.179245283018872" as="geometry" />
        </mxCell>
        <mxCell id="I7_khpXOxJ3i9qSqHDg5-152" value="" style="rounded=0;whiteSpace=wrap;html=1;strokeColor=#111111;fillColor=#000000;strokeWidth=0.5;movable=1;resizable=1;rotatable=1;deletable=1;editable=1;locked=0;connectable=1;container=0;align=center;verticalAlign=middle;fontFamily=Helvetica;fontSize=12;fontColor=default;" parent="I7_khpXOxJ3i9qSqHDg5-150" vertex="1">
          <mxGeometry x="3.1414893617020994" y="3.1415094339622627" width="101.57482269503546" height="19.89622641509434" as="geometry" />
        </mxCell>
        <mxCell id="I7_khpXOxJ3i9qSqHDg5-153" value="" style="rounded=1;whiteSpace=wrap;html=1;strokeColor=#222222;rotation=0;fillColor=#60a917;fontColor=#ffffff;movable=1;resizable=1;rotatable=1;deletable=1;editable=1;locked=0;connectable=1;container=0;direction=south;strokeWidth=0.1;" parent="I7_khpXOxJ3i9qSqHDg5-150" vertex="1">
          <mxGeometry x="105.763475177305" y="20.943396226415096" width="3.141489361702128" height="4.188679245283019" as="geometry" />
        </mxCell>
        <mxCell id="I7_khpXOxJ3i9qSqHDg5-154" value="" style="rounded=1;whiteSpace=wrap;html=1;strokeColor=#222222;rotation=0;fillColor=#0050ef;fontColor=#ffffff;movable=1;resizable=1;rotatable=1;deletable=1;editable=1;locked=0;connectable=1;container=0;direction=south;strokeWidth=0.1;" parent="I7_khpXOxJ3i9qSqHDg5-150" vertex="1">
          <mxGeometry x="105.763475177305" y="11.518867924528301" width="3.141489361702128" height="4.188679245283019" as="geometry" />
        </mxCell>
        <mxCell id="I7_khpXOxJ3i9qSqHDg5-155" value="" style="rounded=1;whiteSpace=wrap;html=1;strokeColor=none;fillColor=#0050ef;strokeWidth=0.5;fontColor=#ffffff;glass=0;movable=1;resizable=1;rotatable=1;deletable=1;editable=1;locked=0;connectable=1;container=0;" parent="I7_khpXOxJ3i9qSqHDg5-150" vertex="1">
          <mxGeometry x="78.53723404255317" y="6.283018867924529" width="8.377304964539007" height="13.613207547169813" as="geometry" />
        </mxCell>
        <mxCell id="I7_khpXOxJ3i9qSqHDg5-156" value="" style="shape=or;whiteSpace=wrap;html=1;fillColor=#0050ef;fontColor=#ffffff;strokeColor=none;movable=1;resizable=1;rotatable=1;deletable=1;editable=1;locked=0;connectable=1;container=0;" parent="I7_khpXOxJ3i9qSqHDg5-150" vertex="1">
          <mxGeometry x="85.86737588652483" y="6.283018867924529" width="3.141489361702128" height="13.613207547169813" as="geometry" />
        </mxCell>
        <mxCell id="I7_khpXOxJ3i9qSqHDg5-157" value="" style="sketch=0;html=1;strokeColor=#111111;shadow=0;fillColor=none;verticalAlign=top;labelPosition=center;verticalLabelPosition=bottom;shape=mxgraph.gcp2.a7_power;gradientColor=none;strokeWidth=0.2;movable=1;resizable=1;rotatable=1;deletable=1;editable=1;locked=0;connectable=1;container=0;" parent="I7_khpXOxJ3i9qSqHDg5-150" vertex="1">
          <mxGeometry x="105.763475177305" y="7.330188679245282" width="3.141489361702128" height="3.1415094339622645" as="geometry" />
        </mxCell>
        <mxCell id="I7_khpXOxJ3i9qSqHDg5-158" value="" style="strokeWidth=0.2;html=1;shape=mxgraph.flowchart.database;whiteSpace=wrap;strokeColor=#111111;fillColor=none;movable=1;resizable=1;rotatable=1;deletable=1;editable=1;locked=0;connectable=1;container=0;" parent="I7_khpXOxJ3i9qSqHDg5-150" vertex="1">
          <mxGeometry x="105.763475177305" y="16.754716981132077" width="3.141489361702128" height="3.1415094339622645" as="geometry" />
        </mxCell>
        <mxCell id="I7_khpXOxJ3i9qSqHDg5-159" value="" style="rounded=0;whiteSpace=wrap;html=1;strokeColor=none;fillColor=#222222;strokeWidth=0.5;movable=1;resizable=1;rotatable=1;deletable=1;editable=1;locked=0;connectable=1;container=0;" parent="I7_khpXOxJ3i9qSqHDg5-150" vertex="1">
          <mxGeometry x="3.1414893617020994" y="3.1415094339622627" width="80.63156028368795" height="19.89622641509434" as="geometry" />
        </mxCell>
        <mxCell id="I7_khpXOxJ3i9qSqHDg5-160" value="" style="rounded=0;whiteSpace=wrap;html=1;strokeColor=none;fillColor=#000000;strokeWidth=0.5;movable=1;resizable=1;rotatable=1;deletable=1;editable=1;locked=0;connectable=1;container=0;align=center;verticalAlign=middle;fontFamily=Helvetica;fontSize=12;fontColor=default;" parent="I7_khpXOxJ3i9qSqHDg5-150" vertex="1">
          <mxGeometry x="13.613120567375915" y="5.759433962264151" width="55.499645390070924" height="2.0943396226415096" as="geometry" />
        </mxCell>
        <mxCell id="I7_khpXOxJ3i9qSqHDg5-161" value="" style="rounded=0;whiteSpace=wrap;html=1;strokeColor=none;fillColor=#000000;strokeWidth=0.5;movable=1;resizable=1;rotatable=1;deletable=1;editable=1;locked=0;connectable=1;container=0;align=center;verticalAlign=middle;fontFamily=Helvetica;fontSize=12;fontColor=default;" parent="I7_khpXOxJ3i9qSqHDg5-150" vertex="1">
          <mxGeometry x="13.613120567375915" y="9.94811320754717" width="55.499645390070924" height="2.0943396226415096" as="geometry" />
        </mxCell>
        <mxCell id="I7_khpXOxJ3i9qSqHDg5-162" value="" style="rounded=0;whiteSpace=wrap;html=1;strokeColor=none;fillColor=#000000;strokeWidth=0.5;movable=1;resizable=1;rotatable=1;deletable=1;editable=1;locked=0;connectable=1;container=0;align=center;verticalAlign=middle;fontFamily=Helvetica;fontSize=12;fontColor=default;" parent="I7_khpXOxJ3i9qSqHDg5-150" vertex="1">
          <mxGeometry x="13.613120567375915" y="14.136792452830193" width="55.499645390070924" height="2.0943396226415096" as="geometry" />
        </mxCell>
        <mxCell id="I7_khpXOxJ3i9qSqHDg5-163" value="" style="rounded=0;whiteSpace=wrap;html=1;strokeColor=none;fillColor=#000000;strokeWidth=0.5;movable=1;resizable=1;rotatable=1;deletable=1;editable=1;locked=0;connectable=1;container=0;align=center;verticalAlign=middle;fontFamily=Helvetica;fontSize=12;fontColor=default;" parent="I7_khpXOxJ3i9qSqHDg5-150" vertex="1">
          <mxGeometry x="13.613120567375915" y="18.325471698113205" width="55.499645390070924" height="2.0943396226415096" as="geometry" />
        </mxCell>
        <mxCell id="I7_khpXOxJ3i9qSqHDg5-164" value="" style="rounded=0;whiteSpace=wrap;html=1;strokeColor=none;fillColor=#111111;strokeWidth=0.2;movable=1;resizable=1;rotatable=1;deletable=1;editable=1;locked=0;connectable=1;container=0;" parent="I7_khpXOxJ3i9qSqHDg5-150" vertex="1">
          <mxGeometry x="30.36773049645393" y="5.759433962264151" width="2.094326241134752" height="14.660377358490567" as="geometry" />
        </mxCell>
        <mxCell id="I7_khpXOxJ3i9qSqHDg5-165" value="" style="rounded=0;whiteSpace=wrap;html=1;strokeColor=none;fillColor=#111111;strokeWidth=0.2;movable=1;resizable=1;rotatable=1;deletable=1;editable=1;locked=0;connectable=1;container=0;" parent="I7_khpXOxJ3i9qSqHDg5-150" vertex="1">
          <mxGeometry x="50.263829787234044" y="5.759433962264151" width="2.094326241134752" height="14.660377358490567" as="geometry" />
        </mxCell>
        <mxCell id="I7_khpXOxJ3i9qSqHDg5-166" value="" style="rounded=0;whiteSpace=wrap;html=1;strokeColor=none;fillColor=#222222;strokeWidth=0.5;movable=1;resizable=1;rotatable=1;deletable=1;editable=1;locked=0;connectable=1;container=0;" parent="I7_khpXOxJ3i9qSqHDg5-150" vertex="1">
          <mxGeometry x="13.613120567375915" y="16.2311320754717" width="55.499645390070924" height="2.0943396226415096" as="geometry" />
        </mxCell>
        <mxCell id="I7_khpXOxJ3i9qSqHDg5-167" value="" style="rounded=0;whiteSpace=wrap;html=1;strokeColor=none;fillColor=#222222;strokeWidth=0.5;movable=1;resizable=1;rotatable=1;deletable=1;editable=1;locked=0;connectable=1;container=0;" parent="I7_khpXOxJ3i9qSqHDg5-150" vertex="1">
          <mxGeometry x="13.613120567375915" y="12.04245283018868" width="55.499645390070924" height="2.0943396226415096" as="geometry" />
        </mxCell>
        <mxCell id="I7_khpXOxJ3i9qSqHDg5-168" value="" style="rounded=0;whiteSpace=wrap;html=1;strokeColor=none;fillColor=#222222;strokeWidth=0.5;movable=1;resizable=1;rotatable=1;deletable=1;editable=1;locked=0;connectable=1;container=0;" parent="I7_khpXOxJ3i9qSqHDg5-150" vertex="1">
          <mxGeometry x="13.613120567375915" y="7.85377358490566" width="55.499645390070924" height="2.0943396226415096" as="geometry" />
        </mxCell>
        <mxCell id="I7_khpXOxJ3i9qSqHDg5-169" value="" style="rounded=0;whiteSpace=wrap;html=1;strokeColor=none;fillColor=#111111;strokeWidth=0.2;movable=1;resizable=1;rotatable=1;deletable=1;editable=1;locked=0;connectable=1;container=0;" parent="I7_khpXOxJ3i9qSqHDg5-150" vertex="1">
          <mxGeometry x="9.424468085106412" y="5.759433962264151" width="4.188652482269504" height="14.660377358490567" as="geometry" />
        </mxCell>
        <mxCell id="I7_khpXOxJ3i9qSqHDg5-170" value="" style="rounded=0;whiteSpace=wrap;html=1;strokeColor=none;fillColor=#111111;strokeWidth=0.2;movable=1;resizable=1;rotatable=1;deletable=1;editable=1;locked=0;connectable=1;container=0;" parent="I7_khpXOxJ3i9qSqHDg5-150" vertex="1">
          <mxGeometry x="69.11276595744681" y="5.759433962264151" width="4.188652482269504" height="14.660377358490567" as="geometry" />
        </mxCell>
      </root>
    </mxGraphModel>
  </diagram>
</mxfile>
